<?xml version="1.0" encoding="UTF-8" standalone="no"?>
<!-- Created with Inkscape (http://www.inkscape.org/) -->

<svg
   xmlns:dc="http://purl.org/dc/elements/1.1/"
   xmlns:cc="http://creativecommons.org/ns#"
   xmlns:rdf="http://www.w3.org/1999/02/22-rdf-syntax-ns#"
   xmlns:svg="http://www.w3.org/2000/svg"
   xmlns="http://www.w3.org/2000/svg"
   xmlns:sodipodi="http://sodipodi.sourceforge.net/DTD/sodipodi-0.dtd"
   xmlns:inkscape="http://www.inkscape.org/namespaces/inkscape"
   width="76.199997mm"
   height="128.4993mm"
   viewBox="0 0 76.199997 128.4993"
   version="1.1"
   id="svg11827"
   inkscape:version="0.91 r13725"
   sodipodi:docname="Seaboard.svg">
  <defs
     id="defs11821" />
  <sodipodi:namedview
     id="base"
     pagecolor="#ffffff"
     bordercolor="#666666"
     borderopacity="1.0"
     inkscape:pageopacity="0.0"
     inkscape:pageshadow="2"
     inkscape:zoom="1.4142136"
     inkscape:cx="330.76997"
     inkscape:cy="254.04875"
     inkscape:document-units="mm"
     inkscape:current-layer="layer1"
     showgrid="false"
     fit-margin-top="0"
     fit-margin-left="0"
     fit-margin-right="0"
     fit-margin-bottom="0"
     inkscape:snap-bbox="true"
     inkscape:bbox-nodes="true"
     inkscape:window-width="1855"
     inkscape:window-height="1056"
     inkscape:window-x="65"
     inkscape:window-y="24"
     inkscape:window-maximized="1"
     showborder="true" />
  <metadata
     id="metadata11824">
    <rdf:RDF>
      <cc:Work
         rdf:about="">
        <dc:format>image/svg+xml</dc:format>
        <dc:type
           rdf:resource="http://purl.org/dc/dcmitype/StillImage" />
        <dc:title></dc:title>
      </cc:Work>
    </rdf:RDF>
  </metadata>
  <g
     inkscape:label="Layer 1"
     inkscape:groupmode="layer"
     id="layer1"
     transform="translate(-73.629762,-3.8857664)">
    <path
       inkscape:connector-curvature="0"
       id="path4071"
       d="m 73.723467,3.9780954 75.943403,0 0,128.3132746 -75.943403,0 z m 0,0"
       style="fill:#5dc8bf;fill-opacity:1;fill-rule:nonzero;stroke:none;stroke-width:0.35277775" />
    <path
       inkscape:connector-curvature="0"
       id="path4073"
       d="m 149.82901,3.8857664 -76.199248,0 0,128.4993036 76.199248,0 z m -0.27904,128.3118936 -75.639092,0 0,-128.1258562 75.639092,0 z m 0,0"
       style="fill:#ababab;fill-opacity:1;fill-rule:nonzero;stroke:none;stroke-width:0.35277775" />
    <path
       inkscape:connector-curvature="0"
       style="fill:#ffd714;fill-opacity:1;stroke:none;stroke-width:0.35277775"
       d=""
       id="path14880" />
    <path
       inkscape:connector-curvature="0"
       style="fill:#ffd714;fill-opacity:1;stroke:none;stroke-width:0.35277775"
       d=""
       id="path14836" />
    <path
       inkscape:connector-curvature="0"
       style="fill:#ffd714;fill-opacity:1;stroke:none;stroke-width:0.35277775"
       d=""
       id="path14800" />
    <path
       inkscape:connector-curvature="0"
       style="fill:#ffd714;fill-opacity:1;stroke:none;stroke-width:0.35277775"
       d=""
       id="path14748" />
    <path
       inkscape:connector-curvature="0"
       style="fill:#ffd714;fill-opacity:1;stroke:none;stroke-width:0.35277775"
       d=""
       id="path14696" />
    <flowRoot
       xml:space="preserve"
       id="flowRoot3581"
       style="font-style:normal;font-variant:normal;font-weight:500;font-stretch:normal;font-size:40px;line-height:125%;font-family:KacstLetter;-inkscape-font-specification:'KacstLetter Medium';letter-spacing:0px;word-spacing:0px;fill:#000000;fill-opacity:1;stroke:none;stroke-width:1px;stroke-linecap:butt;stroke-linejoin:miter;stroke-opacity:1"><flowRegion
         id="flowRegion3583"><rect
           id="rect3585"
           width="248.90158"
           height="94.045204"
           x="-741.755"
           y="-281.4928"
           style="font-style:normal;font-variant:normal;font-weight:500;font-stretch:normal;font-family:KacstLetter;-inkscape-font-specification:'KacstLetter Medium'" /></flowRegion><flowPara
         id="flowPara3587" /></flowRoot>    <ellipse
       style="fill:#54b0a8;fill-opacity:1"
       id="path4372-7-5"
       cx="85.042656"
       cy="103.94221"
       rx="7.0859995"
       ry="7.086" />
    <path
       inkscape:connector-curvature="0"
       id="path4075-35"
       d="m 145.4533,101.05337 c -0.51858,-0.94482 -2.53839,-4.484595 -6.63456,-4.484595 l -52.255244,0 c -1.699643,0 -4.379817,0.61902 -4.379817,1.176629 l 0,12.180786 c 0,0.559 0.620246,1.01459 1.379376,1.01459 l 55.802205,0 c 0.75916,0 4.07481,-3.02253 4.23214,-3.559 z"
       style="fill:#54b0a8;fill-opacity:1;fill-rule:nonzero;stroke:none;stroke-width:0.35277775"
       sodipodi:nodetypes="csssssssc" />
    <path
       inkscape:connector-curvature="0"
       id="path4075"
       d="m 140.68863,98.340148 c 0,-0.54984 -0.56027,-0.99908 -1.24389,-0.99908 l -53.401747,0 c -0.683626,0 -0.659785,0.44924 -0.659785,0.99908 l 0,12.172212 c 0,0.55121 -0.302378,1.00045 0.381248,1.00045 l 53.077784,0 c 0.68363,0 1.84639,-0.44924 1.84639,-1.00045 z"
       style="fill:#3e827c;fill-opacity:1;fill-rule:nonzero;stroke:none;stroke-width:0.35277775"
       sodipodi:nodetypes="sssssssss" />
    <ellipse
       style="fill:#3e827c;fill-opacity:1"
       id="path4372"
       cx="139.24097"
       cy="104.42706"
       rx="7.0859995"
       ry="7.086" />
    <ellipse
       style="fill:#3e827c;fill-opacity:1"
       id="path4372-7"
       cx="85.647942"
       cy="104.42706"
       rx="7.0859995"
       ry="7.086" />
    <ellipse
       style="fill:#4ea59d;fill-opacity:1"
       id="path4372-7-5-6"
       cx="85.042763"
       cy="40.985752"
       rx="7.0859995"
       ry="7.086" />
    <path
       inkscape:connector-curvature="0"
       id="path4075-35-2"
       d="m 145.45341,38.096905 c -0.51858,-0.944823 -2.53839,-4.484595 -6.63456,-4.484595 l -52.255249,0 c -1.69964,0 -4.37982,0.61902 -4.37982,1.176629 l 0,12.180783 c 0,0.558999 0.62025,1.014588 1.37938,1.014588 l 55.802209,0 c 0.75916,0 4.07481,-3.022526 4.23214,-3.558994 z"
       style="fill:#4fa69e;fill-opacity:1;fill-rule:nonzero;stroke:none;stroke-width:0.35277775"
       sodipodi:nodetypes="csssssssc" />
    <path
       inkscape:connector-curvature="0"
       id="path4075-9"
       d="m 140.68874,35.383684 c 0,-0.549841 -0.56027,-0.99908 -1.24389,-0.99908 l -53.401749,0 c -0.68363,0 -0.65979,0.44924 -0.65979,0.99908 l 0,12.17221 c 0,0.551209 -0.30238,1.000449 0.38125,1.000449 l 53.077789,0 c 0.68363,0 1.84639,-0.449239 1.84639,-1.000449 z"
       style="fill:#336b66;fill-opacity:1;fill-rule:nonzero;stroke:none;stroke-width:0.35277775"
       sodipodi:nodetypes="sssssssss" />
    <ellipse
       style="fill:#336b66;fill-opacity:1"
       id="path4372-1"
       cx="139.24109"
       cy="41.4706"
       rx="7.0859995"
       ry="7.086" />
    <ellipse
       style="fill:#336b66;fill-opacity:1"
       id="path4372-7-2"
       cx="85.648048"
       cy="41.4706"
       rx="7.0859995"
       ry="7.086" />
    <ellipse
       ry="7.086"
       rx="7.0859995"
       cy="119.68137"
       cx="85.042763"
       id="ellipse4554"
       style="fill:#54b0a8;fill-opacity:1" />
    <path
       sodipodi:nodetypes="csssssssc"
       style="fill:#54b0a8;fill-opacity:1;fill-rule:nonzero;stroke:none;stroke-width:0.35277775"
       d="m 145.45341,116.79252 c -0.51858,-0.94483 -2.53839,-4.4846 -6.63456,-4.4846 l -52.255249,0 c -1.69964,0 -4.37982,0.61902 -4.37982,1.17663 l 0,12.18078 c 0,0.559 0.62025,1.01459 1.37938,1.01459 l 55.802209,0 c 0.75916,0 4.07481,-3.02252 4.23214,-3.55899 z"
       id="path4556"
       inkscape:connector-curvature="0" />
    <path
       sodipodi:nodetypes="sssssssss"
       style="fill:#3e827c;fill-opacity:1;fill-rule:nonzero;stroke:none;stroke-width:0.35277775"
       d="m 140.68874,114.0793 c 0,-0.54984 -0.56027,-0.99908 -1.24389,-0.99908 l -53.401749,0 c -0.68363,0 -0.65979,0.44924 -0.65979,0.99908 l 0,12.17221 c 0,0.55121 -0.30238,1.00044 0.38125,1.00044 l 53.077789,0 c 0.68363,0 1.84639,-0.44923 1.84639,-1.00044 z"
       id="path4558"
       inkscape:connector-curvature="0" />
    <ellipse
       ry="7.086"
       rx="7.0859995"
       cy="120.16621"
       cx="139.24109"
       id="ellipse4560"
       style="fill:#3e827c;fill-opacity:1" />
    <ellipse
       ry="7.086"
       rx="7.0859995"
       cy="120.16621"
       cx="85.648048"
       id="ellipse4562"
       style="fill:#3e827c;fill-opacity:1" />
    <ellipse
       ry="7.086"
       rx="7.0859995"
       cy="88.203217"
       cx="85.042656"
       id="ellipse4566"
       style="fill:#54b0a8;fill-opacity:1" />
    <path
       sodipodi:nodetypes="csssssssc"
       style="fill:#54b0a8;fill-opacity:1;fill-rule:nonzero;stroke:none;stroke-width:0.35277775"
       d="m 145.4533,85.31437 c -0.51858,-0.944823 -2.53839,-4.484595 -6.63456,-4.484595 l -52.255244,0 c -1.699643,0 -4.379817,0.61902 -4.379817,1.176629 l 0,12.180783 c 0,0.558999 0.620246,1.014588 1.379376,1.014588 l 55.802205,0 c 0.75916,0 4.07481,-3.022525 4.23214,-3.558994 z"
       id="path4568"
       inkscape:connector-curvature="0" />
    <path
       sodipodi:nodetypes="sssssssss"
       style="fill:#3e827c;fill-opacity:1;fill-rule:nonzero;stroke:none;stroke-width:0.35277775"
       d="m 140.68863,82.601148 c 0,-0.54984 -0.56027,-0.99908 -1.24389,-0.99908 l -53.401747,0 c -0.683626,0 -0.659785,0.44924 -0.659785,0.99908 l 0,12.17221 c 0,0.55121 -0.302378,1.00045 0.381248,1.00045 l 53.077784,0 c 0.68363,0 1.84639,-0.44924 1.84639,-1.00045 z"
       id="path4570"
       inkscape:connector-curvature="0" />
    <ellipse
       ry="7.086"
       rx="7.0859995"
       cy="88.688065"
       cx="139.24097"
       id="ellipse4572"
       style="fill:#3e827c;fill-opacity:1" />
    <ellipse
       ry="7.086"
       rx="7.0859995"
       cy="88.688065"
       cx="85.647942"
       id="ellipse4574"
       style="fill:#3e827c;fill-opacity:1" />
    <ellipse
       style="fill:#54b0a8;fill-opacity:1"
       id="ellipse4578"
       cx="85.042656"
       cy="72.464218"
       rx="7.0859995"
       ry="7.086" />
    <path
       inkscape:connector-curvature="0"
       id="path4580"
       d="m 145.4533,69.57537 c -0.51858,-0.944823 -2.53839,-4.484595 -6.63456,-4.484595 l -52.255244,0 c -1.699643,0 -4.379817,0.61902 -4.379817,1.176629 l 0,12.180783 c 0,0.558999 0.620246,1.014588 1.379376,1.014588 l 55.802205,0 c 0.75916,0 4.07481,-3.022525 4.23214,-3.558994 z"
       style="fill:#54b0a8;fill-opacity:1;fill-rule:nonzero;stroke:none;stroke-width:0.35277775"
       sodipodi:nodetypes="csssssssc" />
    <path
       inkscape:connector-curvature="0"
       id="path4582"
       d="m 140.68863,66.862148 c 0,-0.54984 -0.56027,-0.99908 -1.24389,-0.99908 l -53.401747,0 c -0.683626,0 -0.659785,0.44924 -0.659785,0.99908 l 0,12.17221 c 0,0.55121 -0.302378,1.00045 0.381248,1.00045 l 53.077784,0 c 0.68363,0 1.84639,-0.44924 1.84639,-1.00045 z"
       style="fill:#3e827c;fill-opacity:1;fill-rule:nonzero;stroke:none;stroke-width:0.35277775"
       sodipodi:nodetypes="sssssssss" />
    <ellipse
       style="fill:#3e827c;fill-opacity:1"
       id="ellipse4584"
       cx="139.24097"
       cy="72.949066"
       rx="7.0859995"
       ry="7.086" />
    <ellipse
       style="fill:#3e827c;fill-opacity:1"
       id="ellipse4586"
       cx="85.647942"
       cy="72.949066"
       rx="7.0859995"
       ry="7.086" />
    <ellipse
       ry="7.086"
       rx="7.0859995"
       cy="56.725216"
       cx="85.042656"
       id="ellipse4590"
       style="fill:#54b0a8;fill-opacity:1" />
    <path
       sodipodi:nodetypes="csssssssc"
       style="fill:#54b0a8;fill-opacity:1;fill-rule:nonzero;stroke:none;stroke-width:0.35277775"
       d="m 145.4533,53.83637 c -0.51858,-0.944823 -2.53839,-4.484595 -6.63456,-4.484595 l -52.255244,0 c -1.699643,0 -4.379817,0.61902 -4.379817,1.176629 l 0,12.180783 c 0,0.558999 0.620246,1.014588 1.379376,1.014588 l 55.802205,0 c 0.75916,0 4.07481,-3.022525 4.23214,-3.558994 z"
       id="path4592"
       inkscape:connector-curvature="0" />
    <path
       sodipodi:nodetypes="sssssssss"
       style="fill:#3e827c;fill-opacity:1;fill-rule:nonzero;stroke:none;stroke-width:0.35277775"
       d="m 140.68863,51.123148 c 0,-0.54984 -0.56027,-0.99908 -1.24389,-0.99908 l -53.401747,0 c -0.683626,0 -0.659785,0.44924 -0.659785,0.99908 l 0,12.17221 c 0,0.55121 -0.302378,1.00045 0.381248,1.00045 l 53.077784,0 c 0.68363,0 1.84639,-0.44924 1.84639,-1.00045 z"
       id="path4594"
       inkscape:connector-curvature="0" />
    <ellipse
       ry="7.086"
       rx="7.0859995"
       cy="57.210064"
       cx="139.24097"
       id="ellipse4596"
       style="fill:#3e827c;fill-opacity:1" />
    <ellipse
       ry="7.086"
       rx="7.0859995"
       cy="57.210064"
       cx="85.647942"
       id="ellipse4598"
       style="fill:#3e827c;fill-opacity:1" />
    <rect
       style="opacity:1;fill:#000000;fill-opacity:1"
       id="rect4208"
       width="1"
       height="4.5065808"
       x="39.010468"
       y="-87.924232"
       transform="matrix(0,1,-1,0,0,0)"
       ry="0.5" />
    <rect
       ry="0.49999997"
       transform="scale(-1,-1)"
       y="-43.517048"
       x="-87.924232"
       height="4.5065813"
       width="0.99999994"
       id="rect4210"
       style="opacity:1;fill:#000000;fill-opacity:1"
       inkscape:transform-center-x="-0.59868375"
       inkscape:transform-center-y="-0.024945156" />
    <rect
       style="opacity:1;fill:#000000;fill-opacity:1"
       id="rect4212"
       width="0.99999994"
       height="4.5065813"
       x="-84.417648"
       y="-43.517048"
       transform="scale(-1,-1)"
       ry="0.49999997" />
    <rect
       ry="0.5"
       transform="matrix(-0.70710676,0.7071068,-0.70710676,-0.7071068,0,0)"
       y="-101.66859"
       x="-22.363802"
       height="2.8749998"
       width="0.99999994"
       id="rect4491"
       style="opacity:1;fill:#000000;fill-opacity:1" />
    <rect
       ry="0.43032253"
       transform="scale(-1,-1)"
       y="-58.988003"
       x="-86.170761"
       height="4.7373238"
       width="0.99999994"
       id="rect4495"
       style="opacity:1;fill:#000000;fill-opacity:1" />
    <g
       id="g4537">
      <rect
         style="opacity:1;fill:#000000;fill-opacity:1"
         id="rect4499"
         width="0.99999994"
         height="3.9000001"
         x="-8.0495567"
         y="-114.10654"
         transform="matrix(-0.70710676,0.7071068,-0.70710676,-0.7071068,0,0)"
         ry="0.5" />
      <rect
         style="opacity:1;fill:#000000;fill-opacity:1"
         id="rect4503"
         width="0.99999994"
         height="5.5043874"
         x="-86.170746"
         y="-75.494064"
         transform="scale(-1,-1)"
         ry="0.49999997" />
      <rect
         ry="0.5"
         transform="matrix(0.70710676,0.7071068,-0.70710676,0.7071068,0,0)"
         y="-10.9502"
         x="113.10718"
         height="3.9000001"
         width="0.99999994"
         id="rect4535"
         style="opacity:1;fill:#000000;fill-opacity:1" />
    </g>
    <rect
       ry="0.5"
       transform="matrix(-0.70710676,0.7071068,-0.70710676,-0.7071068,0,0)"
       y="-114.10654"
       x="-8.0495567"
       height="3.9000001"
       width="0.99999994"
       id="rect4544"
       style="opacity:1;fill:#000000;fill-opacity:1" />
    <rect
       ry="0.49999997"
       transform="scale(-1,-1)"
       y="-75.494064"
       x="-86.170746"
       height="5.5043874"
       width="0.99999994"
       id="rect4546"
       style="opacity:1;fill:#000000;fill-opacity:1" />
    <rect
       style="opacity:1;fill:#000000;fill-opacity:1"
       id="rect4548"
       width="0.99999994"
       height="3.9000001"
       x="113.10718"
       y="-10.9502"
       transform="matrix(0.70710676,0.7071068,-0.70710676,0.7071068,0,0)"
       ry="0.5" />
    <g
       transform="matrix(-1,0,0,-1,171.34057,161.22274)"
       id="g4563">
      <g
         id="g4565">
        <rect
           style="opacity:1;fill:#000000;fill-opacity:1"
           id="rect4567"
           width="0.99999994"
           height="3.9000001"
           x="-8.0495567"
           y="-114.10654"
           transform="matrix(-0.70710676,0.7071068,-0.70710676,-0.7071068,0,0)"
           ry="0.5" />
        <rect
           style="opacity:1;fill:#000000;fill-opacity:1"
           id="rect4569"
           width="0.99999994"
           height="5.5043874"
           x="-86.170746"
           y="-75.494064"
           transform="scale(-1,-1)"
           ry="0.49999997" />
        <rect
           ry="0.5"
           transform="matrix(0.70710676,0.7071068,-0.70710676,0.7071068,0,0)"
           y="-10.9502"
           x="113.10718"
           height="3.9000001"
           width="0.99999994"
           id="rect4571"
           style="opacity:1;fill:#000000;fill-opacity:1" />
      </g>
      <rect
         ry="0.5"
         transform="matrix(-0.70710676,0.7071068,-0.70710676,-0.7071068,0,0)"
         y="-114.10654"
         x="-8.0495567"
         height="3.9000001"
         width="0.99999994"
         id="rect4573"
         style="opacity:1;fill:#000000;fill-opacity:1" />
      <rect
         ry="0.49999997"
         transform="scale(-1,-1)"
         y="-75.494064"
         x="-86.170746"
         height="5.5043874"
         width="0.99999994"
         id="rect4575"
         style="opacity:1;fill:#000000;fill-opacity:1" />
      <rect
         style="opacity:1;fill:#000000;fill-opacity:1"
         id="rect4577"
         width="0.99999994"
         height="3.9000001"
         x="113.10718"
         y="-10.9502"
         transform="matrix(0.70710676,0.7071068,-0.70710676,0.7071068,0,0)"
         ry="0.5" />
    </g>
    <rect
       style="opacity:1;fill:#000000;fill-opacity:1"
       id="rect4515"
       width="1"
       height="5.5043869"
       x="102.45546"
       y="-88.423134"
       transform="matrix(0,1,-1,0,0,0)"
       ry="0.5" />
    <rect
       style="opacity:1;fill:#000000;fill-opacity:1"
       id="rect4525"
       width="0.99999994"
       height="6.7743874"
       x="-86.169762"
       y="-123.34607"
       transform="scale(-1,-1)"
       ry="0.61536247" />
    <rect
       ry="0.5"
       transform="matrix(0,1,-1,0,0,0)"
       y="-87.550056"
       x="104.1488"
       height="3.7582262"
       width="1"
       id="rect4620"
       style="opacity:1;fill:#000000;fill-opacity:1" />
    <rect
       style="opacity:1;fill:#000000;fill-opacity:1"
       id="rect4622"
       width="1"
       height="2.111846"
       x="105.84214"
       y="-86.72686"
       transform="matrix(0,1,-1,0,0,0)"
       ry="0.5" />
    <g
       id="g4630"
       transform="matrix(-1,0,0,-1,171.34057,161.22274)">
      <rect
         style="opacity:1;fill:#000000;fill-opacity:1"
         id="rect4632"
         width="0.99999994"
         height="3.9000001"
         x="-8.0495567"
         y="-114.10654"
         transform="matrix(-0.70710676,0.7071068,-0.70710676,-0.7071068,0,0)"
         ry="0.5" />
      <rect
         style="opacity:1;fill:#000000;fill-opacity:1"
         id="rect4634"
         width="0.99999994"
         height="5.5043874"
         x="-86.170746"
         y="-75.494064"
         transform="scale(-1,-1)"
         ry="0.49999997" />
      <rect
         ry="0.5"
         transform="matrix(0.70710676,0.7071068,-0.70710676,0.7071068,0,0)"
         y="-10.9502"
         x="113.10718"
         height="3.9000001"
         width="0.99999994"
         id="rect4636"
         style="opacity:1;fill:#000000;fill-opacity:1" />
    </g>
    <rect
       ry="0.5"
       transform="matrix(0.70710676,-0.7071068,0.70710676,0.7071068,0,0)"
       y="121.05124"
       x="-0.89516383"
       height="3.9000001"
       width="0.99999994"
       id="rect4638"
       style="opacity:1;fill:#000000;fill-opacity:1" />
    <rect
       ry="0.49999997"
       y="85.728676"
       x="85.169823"
       height="5.5043874"
       width="0.99999994"
       id="rect4640"
       style="opacity:1;fill:#000000;fill-opacity:1" />
    <rect
       style="opacity:1;fill:#000000;fill-opacity:1"
       id="rect4642"
       width="0.99999994"
       height="3.9000001"
       x="-122.0506"
       y="-3.7958071"
       transform="matrix(-0.70710676,-0.7071068,0.70710676,-0.7071068,0,0)"
       ry="0.5" />
    <rect
       style="opacity:1;fill:#000000;fill-opacity:1"
       id="rect4679"
       width="0.99999994"
       height="2.8749998"
       x="25.787615"
       y="-147.94231"
       transform="matrix(-0.70710676,0.7071068,-0.70710676,-0.7071068,0,0)"
       ry="0.5" />
    <rect
       ry="0.5"
       transform="matrix(-0.70710676,0.7071068,-0.70710676,-0.7071068,0,0)"
       y="-145.73549"
       x="21.704506"
       height="2.8749998"
       width="0.99999994"
       id="rect4681"
       style="opacity:1;fill:#000000;fill-opacity:1" />
    <rect
       style="opacity:1;fill:#000000;fill-opacity:1"
       id="rect4683"
       width="0.99999994"
       height="2.8749998"
       x="146.94296"
       y="23.911972"
       transform="matrix(0.70710676,0.7071068,-0.70710676,0.7071068,0,0)"
       ry="0.5" />
    <rect
       ry="0.5"
       y="21.705151"
       x="142.85985"
       height="2.8749998"
       width="0.99999994"
       id="rect4685"
       style="opacity:1;fill:#000000;fill-opacity:1"
       transform="matrix(0.70710676,0.7071068,-0.70710676,0.7071068,0,0)" />
    <ellipse
       style="opacity:1;fill:#000000;fill-opacity:1"
       id="path4701"
       cx="85.044762"
       cy="58.629066"
       rx="1.1259999"
       ry="1.126" />
  </g>
  <g
     inkscape:groupmode="layer"
     id="layer2"
     inkscape:label="widgets"
     style="display:none">
    <rect
       style="opacity:1;fill:#ffff00;fill-opacity:0.50196078;fill-rule:evenodd;stroke:none;stroke-width:0.20988902;stroke-linecap:round;stroke-linejoin:miter;stroke-miterlimit:4;stroke-dasharray:none;stroke-dashoffset:0;stroke-opacity:1;paint-order:normal"
       id="rect16218"
       width="43.999382"
       height="28.000359"
       x="3.4009969"
       y="14.837336" />
    <rect
       y="60.144478"
       x="3.894335"
       height="8.211729"
       width="8.2117319"
       id="rect17025"
       style="opacity:1;fill:#0000ff;fill-opacity:0.50196078;fill-rule:evenodd;stroke:none;stroke-width:0.04910428;stroke-linecap:round;stroke-linejoin:miter;stroke-miterlimit:4;stroke-dasharray:none;stroke-dashoffset:0;stroke-opacity:1;paint-order:normal" />
    <rect
       style="opacity:1;fill:#0000ff;fill-opacity:0.50196078;fill-rule:evenodd;stroke:none;stroke-width:0.04910428;stroke-linecap:round;stroke-linejoin:miter;stroke-miterlimit:4;stroke-dasharray:none;stroke-dashoffset:0;stroke-opacity:1;paint-order:normal"
       id="rect17027"
       width="8.2117319"
       height="8.211729"
       x="15.494659"
       y="60.144478" />
    <rect
       y="60.144478"
       x="27.094986"
       height="8.211729"
       width="8.2117319"
       id="rect17029"
       style="opacity:1;fill:#0000ff;fill-opacity:0.50196078;fill-rule:evenodd;stroke:none;stroke-width:0.04910428;stroke-linecap:round;stroke-linejoin:miter;stroke-miterlimit:4;stroke-dasharray:none;stroke-dashoffset:0;stroke-opacity:1;paint-order:normal" />
    <rect
       style="opacity:1;fill:#0000ff;fill-opacity:0.50196078;fill-rule:evenodd;stroke:none;stroke-width:0.04910428;stroke-linecap:round;stroke-linejoin:miter;stroke-miterlimit:4;stroke-dasharray:none;stroke-dashoffset:0;stroke-opacity:1;paint-order:normal"
       id="rect17031"
       width="8.2117319"
       height="8.211729"
       x="38.693935"
       y="60.144478" />
    <rect
       style="opacity:1;fill:#0000ff;fill-opacity:0.50196078;fill-rule:evenodd;stroke:none;stroke-width:0.04910428;stroke-linecap:round;stroke-linejoin:miter;stroke-miterlimit:4;stroke-dasharray:none;stroke-dashoffset:0;stroke-opacity:1;paint-order:normal"
       id="rect17033"
       width="8.2117319"
       height="8.211729"
       x="3.894335"
       y="76.144882" />
    <rect
       y="76.144882"
       x="15.494659"
       height="8.211729"
       width="8.2117319"
       id="rect17035"
       style="opacity:1;fill:#0000ff;fill-opacity:0.50196078;fill-rule:evenodd;stroke:none;stroke-width:0.04910428;stroke-linecap:round;stroke-linejoin:miter;stroke-miterlimit:4;stroke-dasharray:none;stroke-dashoffset:0;stroke-opacity:1;paint-order:normal" />
    <rect
       style="opacity:1;fill:#0000ff;fill-opacity:0.50196078;fill-rule:evenodd;stroke:none;stroke-width:0.04910428;stroke-linecap:round;stroke-linejoin:miter;stroke-miterlimit:4;stroke-dasharray:none;stroke-dashoffset:0;stroke-opacity:1;paint-order:normal"
       id="rect17037"
       width="8.2117319"
       height="8.211729"
       x="27.094986"
       y="76.144882" />
    <rect
       y="76.144882"
       x="38.693935"
       height="8.211729"
       width="8.2117319"
       id="rect17039"
       style="opacity:1;fill:#0000ff;fill-opacity:0.50196078;fill-rule:evenodd;stroke:none;stroke-width:0.04910428;stroke-linecap:round;stroke-linejoin:miter;stroke-miterlimit:4;stroke-dasharray:none;stroke-dashoffset:0;stroke-opacity:1;paint-order:normal" />
    <rect
       y="92.143906"
       x="3.894335"
       height="8.211729"
       width="8.2117319"
       id="rect17041"
       style="opacity:1;fill:#0000ff;fill-opacity:0.50196078;fill-rule:evenodd;stroke:none;stroke-width:0.04910428;stroke-linecap:round;stroke-linejoin:miter;stroke-miterlimit:4;stroke-dasharray:none;stroke-dashoffset:0;stroke-opacity:1;paint-order:normal" />
    <rect
       style="opacity:1;fill:#0000ff;fill-opacity:0.50196078;fill-rule:evenodd;stroke:none;stroke-width:0.04910428;stroke-linecap:round;stroke-linejoin:miter;stroke-miterlimit:4;stroke-dasharray:none;stroke-dashoffset:0;stroke-opacity:1;paint-order:normal"
       id="rect17043"
       width="8.2117319"
       height="8.211729"
       x="15.494659"
       y="92.143906" />
    <rect
       y="92.143906"
       x="27.094986"
       height="8.211729"
       width="8.2117319"
       id="rect17045"
       style="opacity:1;fill:#0000ff;fill-opacity:0.50196078;fill-rule:evenodd;stroke:none;stroke-width:0.04910428;stroke-linecap:round;stroke-linejoin:miter;stroke-miterlimit:4;stroke-dasharray:none;stroke-dashoffset:0;stroke-opacity:1;paint-order:normal" />
    <rect
       style="opacity:1;fill:#0000ff;fill-opacity:0.50196078;fill-rule:evenodd;stroke:none;stroke-width:0.04910428;stroke-linecap:round;stroke-linejoin:miter;stroke-miterlimit:4;stroke-dasharray:none;stroke-dashoffset:0;stroke-opacity:1;paint-order:normal"
       id="rect17047"
       width="8.2117319"
       height="8.211729"
       x="38.693935"
       y="92.143906" />
    <rect
       style="opacity:1;fill:#0000ff;fill-opacity:0.50196078;fill-rule:evenodd;stroke:none;stroke-width:0.04910428;stroke-linecap:round;stroke-linejoin:miter;stroke-miterlimit:4;stroke-dasharray:none;stroke-dashoffset:0;stroke-opacity:1;paint-order:normal"
       id="rect17049"
       width="8.2117319"
       height="8.211729"
       x="3.894335"
       y="108.1443" />
    <rect
       y="108.1443"
       x="15.494659"
       height="8.211729"
       width="8.2117319"
       id="rect17051"
       style="opacity:1;fill:#0000ff;fill-opacity:0.50196078;fill-rule:evenodd;stroke:none;stroke-width:0.04910428;stroke-linecap:round;stroke-linejoin:miter;stroke-miterlimit:4;stroke-dasharray:none;stroke-dashoffset:0;stroke-opacity:1;paint-order:normal" />
    <rect
       style="opacity:1;fill:#0000ff;fill-opacity:0.50196078;fill-rule:evenodd;stroke:none;stroke-width:0.04910428;stroke-linecap:round;stroke-linejoin:miter;stroke-miterlimit:4;stroke-dasharray:none;stroke-dashoffset:0;stroke-opacity:1;paint-order:normal"
       id="rect17053"
       width="8.2117319"
       height="8.211729"
       x="27.094986"
       y="108.1443" />
    <rect
       y="108.1443"
       x="38.693935"
       height="8.211729"
       width="8.2117319"
       id="rect17055"
       style="opacity:1;fill:#0000ff;fill-opacity:0.50196078;fill-rule:evenodd;stroke:none;stroke-width:0.04910428;stroke-linecap:round;stroke-linejoin:miter;stroke-miterlimit:4;stroke-dasharray:none;stroke-dashoffset:0;stroke-opacity:1;paint-order:normal" />
  </g>
</svg>
