<?xml version="1.0" encoding="UTF-8" standalone="no"?>
<!-- Created with Inkscape (http://www.inkscape.org/) -->

<svg
   xmlns:dc="http://purl.org/dc/elements/1.1/"
   xmlns:cc="http://creativecommons.org/ns#"
   xmlns:rdf="http://www.w3.org/1999/02/22-rdf-syntax-ns#"
   xmlns:svg="http://www.w3.org/2000/svg"
   xmlns="http://www.w3.org/2000/svg"
   xmlns:sodipodi="http://sodipodi.sourceforge.net/DTD/sodipodi-0.dtd"
   xmlns:inkscape="http://www.inkscape.org/namespaces/inkscape"
   width="76.199997mm"
   height="128.4993mm"
   viewBox="0 0 76.199997 128.4993"
   version="1.1"
   id="svg11827"
   inkscape:version="0.91 r13725"
   sodipodi:docname="Seaboard.svg">
  <defs
     id="defs11821" />
  <sodipodi:namedview
     id="base"
     pagecolor="#ffffff"
     bordercolor="#666666"
     borderopacity="1.0"
     inkscape:pageopacity="0.0"
     inkscape:pageshadow="2"
     inkscape:zoom="2"
     inkscape:cx="173.73024"
     inkscape:cy="270.53401"
     inkscape:document-units="mm"
     inkscape:current-layer="text3577"
     showgrid="false"
     fit-margin-top="0"
     fit-margin-left="0"
     fit-margin-right="0"
     fit-margin-bottom="0"
     inkscape:snap-bbox="true"
     inkscape:bbox-nodes="true"
     inkscape:window-width="1248"
     inkscape:window-height="1388"
     inkscape:window-x="1312"
     inkscape:window-y="24"
     inkscape:window-maximized="0"
     showborder="true" />
  <metadata
     id="metadata11824">
    <rdf:RDF>
      <cc:Work
         rdf:about="">
        <dc:format>image/svg+xml</dc:format>
        <dc:type
           rdf:resource="http://purl.org/dc/dcmitype/StillImage" />
        <dc:title></dc:title>
      </cc:Work>
    </rdf:RDF>
  </metadata>
  <g
     inkscape:label="Layer 1"
     inkscape:groupmode="layer"
     id="layer1"
     transform="translate(-73.629762,-3.8857664)">
    <path
       inkscape:connector-curvature="0"
       id="path4071"
       d="m 73.723467,3.9780954 75.943403,0 0,128.3132746 -75.943403,0 z m 0,0"
       style="fill:#e6e6e6;fill-opacity:1;fill-rule:nonzero;stroke:none;stroke-width:0.35277775" />
    <path
       inkscape:connector-curvature="0"
       id="path4073"
       d="m 149.82901,3.8857664 -76.199248,0 0,128.4993036 76.199248,0 z m -0.27904,128.3118936 -75.639092,0 0,-128.1258562 75.639092,0 z m 0,0"
       style="fill:#ababab;fill-opacity:1;fill-rule:nonzero;stroke:none;stroke-width:0.35277775" />
    <path
       inkscape:connector-curvature="0"
       id="path4075"
       d="m 144.59279,59.929982 c 0,-0.54984 -0.68649,-0.99908 -1.52413,-0.99908 l -64.718868,0 c -0.83764,0 -1.52203,0.44924 -1.52203,0.99908 l 0,12.17221 c 0,0.55121 0.68439,1.00045 1.52203,1.00045 l 64.718868,0 c 0.83764,0 1.52413,-0.44924 1.52413,-1.00045 z m 0,0"
       style="fill:#000000;fill-opacity:1;fill-rule:nonzero;stroke:none;stroke-width:0.35277775" />
    <path
       inkscape:connector-curvature="0"
       id="path4079"
       d="m 108.85018,128.14291 c -0.11714,0 -0.22462,-0.0661 -0.27699,-0.17088 l -1.00183,-2.00504 c -0.0758,-0.15297 -0.0138,-0.33762 0.1378,-0.41341 0.15296,-0.0772 0.33762,-0.0152 0.41341,0.1378 l 0.72761,1.45246 0.72622,-1.45246 c 0.0758,-0.15296 0.26183,-0.21497 0.41342,-0.1378 0.15296,0.0758 0.21359,0.26044 0.1378,0.41341 l -1.00184,2.00504 c -0.0524,0.10474 -0.15985,0.17088 -0.2756,0.17088"
       style="fill:#000000;fill-opacity:1;fill-rule:nonzero;stroke:none;stroke-width:0.35277775" />
    <path
       inkscape:connector-curvature="0"
       id="path4081"
       d="m 114.35544,128.14291 c -0.11713,0 -0.22324,-0.0661 -0.27561,-0.17088 l -1.00321,-2.00504 c -0.0758,-0.15297 -0.0138,-0.33762 0.13919,-0.41341 0.15158,-0.0772 0.33761,-0.0152 0.4134,0.1378 l 0.72623,1.45246 0.72623,-1.45246 c 0.0758,-0.15296 0.26182,-0.21497 0.41341,-0.1378 0.15296,0.0758 0.21497,0.26044 0.1378,0.41341 l -1.00183,2.00504 c -0.0524,0.10474 -0.15847,0.17088 -0.27561,0.17088"
       style="fill:#000000;fill-opacity:1;fill-rule:nonzero;stroke:none;stroke-width:0.35277775" />
    <path
       inkscape:connector-curvature="0"
       id="path4083"
       d="m 111.75232,128.14291 c -0.72347,0 -1.31051,-0.58842 -1.31051,-1.31189 0,-0.72209 0.58704,-1.31052 1.31051,-1.31052 0.28664,0 0.55811,0.091 0.78686,0.26183 0.13643,0.10335 0.16262,0.29628 0.0606,0.43271 -0.102,0.13642 -0.29493,0.16398 -0.43135,0.0606 -0.12127,-0.0896 -0.26459,-0.13918 -0.41617,-0.13918 -0.3831,0 -0.69453,0.31282 -0.69453,0.69453 0,0.38309 0.31143,0.69453 0.69453,0.69453 0.15158,0 0.2949,-0.0482 0.41617,-0.13918 0.13642,-0.10198 0.32935,-0.0744 0.43135,0.062 0.10197,0.13643 0.0758,0.32935 -0.0606,0.43132 -0.22875,0.17226 -0.50022,0.26321 -0.78686,0.26321"
       style="fill:#000000;fill-opacity:1;fill-rule:nonzero;stroke:none;stroke-width:0.35277775" />
    <path
       inkscape:connector-curvature="0"
       id="path4085"
       d="m 112.17263,126.81586 c 0,0.22186 -0.17915,0.40101 -0.40101,0.40101 -0.22049,0 -0.39963,-0.17915 -0.39963,-0.40101 0,-0.22186 0.17914,-0.40101 0.39963,-0.40101 0.22186,0 0.40101,0.17915 0.40101,0.40101"
       style="fill:#000000;fill-opacity:1;fill-rule:nonzero;stroke:none;stroke-width:0.35277775" />
    <path
       inkscape:connector-curvature="0"
       style="fill:#000000;fill-opacity:1;stroke:none;stroke-width:0.35277775"
       d="m 104.33067,56.398719 c 0.60634,0 1.03628,-0.463021 1.03628,-1.019747 l 0,-0.0055 c 0,-0.556726 -0.42443,-1.019747 -1.03077,-1.019747 -0.60633,0 -1.03628,0.468532 -1.03628,1.025261 l 0,0.0055 c 0,0.556731 0.42443,1.014238 1.03077,1.014238 z m 0.005,-0.319704 c -0.39137,0 -0.67248,-0.319704 -0.67248,-0.700043 l 0,-0.0055 c 0,-0.38585 0.2756,-0.70004 0.66696,-0.70004 0.39137,0 0.67249,0.319704 0.67249,0.705554 l 0,0.0055 c 0,0.380341 -0.27561,0.694531 -0.66697,0.694531 z m 0,0"
       id="path14938" />
    <path
       inkscape:connector-curvature="0"
       style="fill:#000000;fill-opacity:1;stroke:none;stroke-width:0.35277775"
       d="m 106.66669,56.398719 c 0.51814,0 0.84887,-0.297657 0.84887,-0.887455 l 0,-0.964629 c 0,-0.0937 -0.0772,-0.170873 -0.17087,-0.170873 -0.0992,0 -0.17639,0.07717 -0.17639,0.170873 l 0,0.981165 c 0,0.363802 -0.18742,0.545703 -0.4961,0.545703 -0.30868,0 -0.5016,-0.192926 -0.5016,-0.562239 l 0,-0.964629 c 0,-0.0937 -0.0717,-0.170873 -0.17088,-0.170873 -0.0992,0 -0.17639,0.07717 -0.17639,0.170873 l 0,0.981165 c 0,0.573262 0.33073,0.870919 0.84336,0.870919 z m 0,0"
       id="path14930" />
    <path
       inkscape:connector-curvature="0"
       style="fill:#000000;fill-opacity:1;stroke:none;stroke-width:0.35277775"
       d="m 108.53716,56.205795 c 0,0.09922 0.0772,0.17639 0.17639,0.17639 0.0937,0 0.17639,-0.07717 0.17639,-0.17639 l 0,-1.493795 0.47956,0 c 0.0882,0 0.15985,-0.07165 0.15985,-0.159851 0,-0.08819 -0.0717,-0.159853 -0.15985,-0.159853 l -1.3119,0 c -0.0882,0 -0.15985,0.07166 -0.15985,0.159853 0,0.0882 0.0717,0.159851 0.15985,0.159851 l 0.47956,0 z m 0,0"
       id="path14934" />
    <path
       inkscape:connector-curvature="0"
       style="fill:#000000;fill-opacity:1;stroke:none;stroke-width:0.35277775"
       d="m 109.92493,56.205795 c 0,0.09922 0.0772,0.17639 0.17639,0.17639 0.0937,0 0.17088,-0.07717 0.17088,-0.17639 l 0,-0.474043 0.39136,0 c 0.43546,0 0.79375,-0.231511 0.79375,-0.677998 l 0,-0.0055 c 0,-0.396875 -0.29214,-0.655947 -0.75516,-0.655947 l -0.60083,0 c -0.0992,0 -0.17639,0.07166 -0.17639,0.170878 z m 0.34727,-0.788239 0,-0.711065 0.40239,0 c 0.25907,0 0.42994,0.121267 0.42994,0.352777 l 0,0.0055 c 0,0.203952 -0.16536,0.352777 -0.42994,0.352777 z m 0,0"
       id="path14926" />
    <path
       inkscape:connector-curvature="0"
       style="fill:#000000;fill-opacity:1;stroke:none;stroke-width:0.35277775"
       d="m 112.67774,56.398719 c 0.51814,0 0.84887,-0.297657 0.84887,-0.887455 l 0,-0.964629 c 0,-0.0937 -0.0772,-0.170873 -0.17088,-0.170873 -0.0992,0 -0.17639,0.07717 -0.17639,0.170873 l 0,0.981165 c 0,0.363802 -0.18741,0.545703 -0.49609,0.545703 -0.30868,0 -0.50161,-0.192926 -0.50161,-0.562239 l 0,-0.964629 c 0,-0.0937 -0.0717,-0.170873 -0.17087,-0.170873 -0.0992,0 -0.17639,0.07717 -0.17639,0.170873 l 0,0.981165 c 0,0.573262 0.33073,0.870919 0.84336,0.870919 z m 0,0"
       id="path14922" />
    <path
       inkscape:connector-curvature="0"
       style="fill:#000000;fill-opacity:1;stroke:none;stroke-width:0.35277775"
       d="m 114.54681,56.205795 c 0,0.09922 0.0772,0.17639 0.17639,0.17639 0.0937,0 0.17639,-0.07717 0.17639,-0.17639 l 0,-1.493795 0.47955,0 c 0.0882,0 0.15986,-0.07165 0.15986,-0.159851 0,-0.08819 -0.0717,-0.159853 -0.15986,-0.159853 l -1.31189,0 c -0.0882,0 -0.15985,0.07166 -0.15985,0.159853 0,0.0882 0.0717,0.159851 0.15985,0.159851 l 0.47956,0 z m 0,0"
       id="path14918" />
    <path
       inkscape:connector-curvature="0"
       style="fill:#000000;fill-opacity:1;stroke:none;stroke-width:0.35277775"
       d="m 116.61725,56.39321 c 0.41341,0 0.70555,-0.220488 0.70555,-0.589804 l 0,-0.0055 c 0,-0.325218 -0.21497,-0.474044 -0.63389,-0.578776 -0.38034,-0.0882 -0.47405,-0.159851 -0.47405,-0.308682 l 0,-0.0055 c 0,-0.132292 0.12127,-0.237024 0.32522,-0.237024 0.15434,0 0.29766,0.05512 0.452,0.14883 0.0276,0.01654 0.0551,0.02755 0.0937,0.02755 0.0882,0 0.15985,-0.07166 0.15985,-0.15985 0,-0.06615 -0.0331,-0.115758 -0.0772,-0.137806 -0.17639,-0.121266 -0.37483,-0.187412 -0.62288,-0.187412 -0.39136,0 -0.67799,0.237024 -0.67799,0.573262 l 0,0.0055 c 0,0.363802 0.23702,0.49058 0.66146,0.589799 0.3638,0.0882 0.44648,0.165364 0.44648,0.30317 l 0,0.0055 c 0,0.148831 -0.1378,0.24805 -0.35278,0.24805 -0.21497,0 -0.39136,-0.07166 -0.55121,-0.203952 -0.022,-0.01654 -0.0551,-0.02755 -0.10473,-0.02755 -0.0882,0 -0.15986,0.07165 -0.15986,0.159851 0,0.05512 0.0276,0.104733 0.0662,0.132292 0.22049,0.165364 0.47405,0.248047 0.74415,0.248047 z m 0,0"
       id="path14914" />
    <path
       inkscape:connector-curvature="0"
       style="fill:#ffd714;fill-opacity:1;stroke:none;stroke-width:0.35277775"
       d=""
       id="path14880" />
    <path
       inkscape:connector-curvature="0"
       style="fill:#ffd714;fill-opacity:1;stroke:none;stroke-width:0.35277775"
       d=""
       id="path14836" />
    <path
       inkscape:connector-curvature="0"
       style="fill:#ffd714;fill-opacity:1;stroke:none;stroke-width:0.35277775"
       d=""
       id="path14800" />
    <path
       inkscape:connector-curvature="0"
       style="fill:#ffd714;fill-opacity:1;stroke:none;stroke-width:0.35277775"
       d=""
       id="path14748" />
    <path
       inkscape:connector-curvature="0"
       style="fill:#ffd714;fill-opacity:1;stroke:none;stroke-width:0.35277775"
       d=""
       id="path14696" />
    <path
       inkscape:connector-curvature="0"
       id="path4595"
       d="m 121.30946,59.929982 c 0,-0.54984 -0.45062,-0.99908 -1.00046,-0.99908 l -7.68118,0 c -0.55122,0 -1.00046,0.44924 -1.00046,0.99908 l 0,12.17221 c 0,0.55121 0.44924,1.00045 1.00046,1.00045 l 7.68118,0 c 0.54984,0 1.00046,-0.44924 1.00046,-1.00045 z m 0,0"
       style="fill:#000000;fill-opacity:1;fill-rule:nonzero;stroke:none;stroke-width:0.35277775" />
    <path
       inkscape:connector-curvature="0"
       id="path4597"
       d="m 109.70913,59.929982 c 0,-0.54984 -0.44924,-0.99908 -1.00045,-0.99908 l -7.68119,0 c -0.54984,0 -1.00045,0.44924 -1.00045,0.99908 l 0,12.17221 c 0,0.55121 0.45061,1.00045 1.00045,1.00045 l 7.68119,0 c 0.55121,0 1.00045,-0.44924 1.00045,-1.00045 z m 0,0"
       style="fill:#000000;fill-opacity:1;fill-rule:nonzero;stroke:none;stroke-width:0.35277775" />
    <path
       inkscape:connector-curvature="0"
       id="path4599"
       d="m 98.108807,59.929982 c 0,-0.54984 -0.449241,-0.99908 -0.999077,-0.99908 l -7.682565,0 c -0.549836,0 -1.000453,0.44924 -1.000453,0.99908 l 0,12.17221 c 0,0.55121 0.450617,1.00045 1.000453,1.00045 l 7.682565,0 c 0.549836,0 0.999077,-0.44924 0.999077,-1.00045 z m 0,0"
       style="fill:#000000;fill-opacity:1;fill-rule:nonzero;stroke:none;stroke-width:0.35277775" />
    <g
       style="font-style:normal;font-weight:normal;font-size:11.28888893px;line-height:125%;font-family:sans-serif;letter-spacing:0px;word-spacing:0px;fill:#000000;fill-opacity:1;stroke:none;stroke-width:1px;stroke-linecap:butt;stroke-linejoin:miter;stroke-opacity:1"
       id="text3577">
      <path
         d="m 98.271185,12.286734 c 1.085847,0 1.727197,-0.65405 1.727197,-1.4224 0,-0.679451 -0.37465,-1.0414005 -0.94615,-1.2763505 l -0.615947,-0.26035 c -0.40005,-0.15875 -0.7366,-0.2794 -0.7366,-0.61595 0,-0.31115 0.2667,-0.4953 0.67945,-0.4953 0.38735,0 0.698497,0.1397 0.996947,0.38735 l 0.47625,-0.59055 c -0.381,-0.38735 -0.927097,-0.60325 -1.473197,-0.60325 -0.9525,0 -1.6256,0.59055 -1.6256,1.3589 0,0.6858 0.47625,1.0668 0.9525,1.2636495 l 0.62865,0.2667 c 0.4191,0.1778 0.704847,0.28575 0.704847,0.635001 0,0.3302 -0.260347,0.53975 -0.749297,0.53975 -0.41275,0 -0.85725,-0.20955 -1.1938,-0.5207 l -0.53975,0.6477 c 0.4572,0.43815 1.08585,0.6858 1.7145,0.6858 z"
         style="font-style:normal;font-variant:normal;font-weight:bold;font-stretch:normal;font-size:6.3499999px;font-family:'Noto Sans CJK TC';-inkscape-font-specification:'Noto Sans CJK TC Bold'"
         id="path3741"
         inkscape:connector-curvature="0" />
      <path
         d="m 102.29103,12.286734 c 0.4445,0 0.89535,-0.1524 1.2446,-0.3937 l -0.3175,-0.5715 c -0.254,0.15875 -0.508,0.24765 -0.8001,0.24765 -0.52705,0 -0.90805,-0.3048 -0.98425,-0.889001 l 2.19075,0 c 0.0254,-0.08255 0.0445,-0.254 0.0445,-0.42545 0,-0.9842495 -0.508,-1.7017995 -1.4859,-1.7017995 -0.8509,0 -1.65735,0.71755 -1.65735,1.8732495 0,1.168401 0.7747,1.860551 1.7653,1.860551 z m -0.86995,-2.222501 c 0.0699,-0.5206995 0.40005,-0.7873995 0.7747,-0.7873995 0.4572,0 0.6731,0.3048 0.6731,0.7873995 l -1.4478,0 z"
         style="font-style:normal;font-variant:normal;font-weight:bold;font-stretch:normal;font-size:6.3499999px;font-family:'Noto Sans CJK TC';-inkscape-font-specification:'Noto Sans CJK TC Bold'"
         id="path3743"
         inkscape:connector-curvature="0" />
      <path
         d="m 105.22096,12.286734 c 0.4064,0 0.762,-0.2032 1.07315,-0.4699 l 0.019,0 0.0699,0.381 0.762,0 0,-2.076451 c 0,-1.0286995 -0.46355,-1.5684495 -1.36525,-1.5684495 -0.5588,0 -1.0668,0.20955 -1.4859,0.4699 l 0.33655,0.61595 c 0.3302,-0.1905 0.6477,-0.33655 0.9779,-0.33655 0.43815,0 0.59055,0.2667 0.60325,0.61595 -1.42875,0.1523995 -2.0447,0.5524495 -2.0447,1.3144505 0,0.60325 0.4191,1.0541 1.0541,1.0541 z m 0.3048,-0.73025 c -0.27305,0 -0.4699,-0.12065 -0.4699,-0.40005 0,-0.317501 0.2921,-0.552451 1.1557,-0.666751 l 0,0.717551 c -0.22225,0.22225 -0.4191,0.34925 -0.6858,0.34925 z"
         style="font-style:normal;font-variant:normal;font-weight:bold;font-stretch:normal;font-size:6.3499999px;font-family:'Noto Sans CJK TC';-inkscape-font-specification:'Noto Sans CJK TC Bold'"
         id="path3745"
         inkscape:connector-curvature="0" />
      <path
         d="m 109.88692,12.286734 c 0.78105,0 1.5113,-0.70485 1.5113,-1.930401 0,-1.0858495 -0.52705,-1.8033995 -1.40335,-1.8033995 -0.34925,0 -0.70485,0.17145 -0.98425,0.42545 l 0.019,-0.5715 0,-1.27635 -0.9271,0 0,5.0673005 0.73025,0 0.0825,-0.37465 0.0191,0 c 0.2921,0.29845 0.635,0.46355 0.9525,0.46355 z m -0.20955,-0.76835 c -0.1905,0 -0.42545,-0.06985 -0.6477,-0.2667 l 0,-1.5621005 c 0.24765,-0.24765 0.46355,-0.3683 0.70485,-0.3683 0.48895,0 0.70485,0.37465 0.70485,1.0540995 0,0.774701 -0.3302,1.143001 -0.762,1.143001 z"
         style="font-style:normal;font-variant:normal;font-weight:bold;font-stretch:normal;font-size:6.3499999px;font-family:'Noto Sans CJK TC';-inkscape-font-specification:'Noto Sans CJK TC Bold'"
         id="path3747"
         inkscape:connector-curvature="0" />
      <path
         d="m 113.68124,12.286734 c 0.889,0 1.70815,-0.6858 1.70815,-1.860551 0,-1.1874495 -0.81915,-1.8732495 -1.70815,-1.8732495 -0.889,0 -1.70815,0.6858 -1.70815,1.8732495 0,1.174751 0.81915,1.860551 1.70815,1.860551 z m 0,-0.762 c -0.4826,0 -0.75565,-0.4318 -0.75565,-1.098551 0,-0.6730995 0.27305,-1.1112495 0.75565,-1.1112495 0.4826,0 0.75565,0.43815 0.75565,1.1112495 0,0.666751 -0.27305,1.098551 -0.75565,1.098551 z"
         style="font-style:normal;font-variant:normal;font-weight:bold;font-stretch:normal;font-size:6.3499999px;font-family:'Noto Sans CJK TC';-inkscape-font-specification:'Noto Sans CJK TC Bold'"
         id="path3749"
         inkscape:connector-curvature="0" />
      <path
         d="m 116.96598,12.286734 c 0.4064,0 0.762,-0.2032 1.07315,-0.4699 l 0.019,0 0.0699,0.381 0.762,0 0,-2.076451 c 0,-1.0286995 -0.46355,-1.5684495 -1.36525,-1.5684495 -0.5588,0 -1.0668,0.20955 -1.4859,0.4699 l 0.33655,0.61595 c 0.3302,-0.1905 0.6477,-0.33655 0.9779,-0.33655 0.43815,0 0.59055,0.2667 0.60325,0.61595 -1.42875,0.1523995 -2.0447,0.5524495 -2.0447,1.3144505 0,0.60325 0.4191,1.0541 1.0541,1.0541 z m 0.3048,-0.73025 c -0.27305,0 -0.4699,-0.12065 -0.4699,-0.40005 0,-0.317501 0.2921,-0.552451 1.1557,-0.666751 l 0,0.717551 c -0.22225,0.22225 -0.4191,0.34925 -0.6858,0.34925 z"
         style="font-style:normal;font-variant:normal;font-weight:bold;font-stretch:normal;font-size:6.3499999px;font-family:'Noto Sans CJK TC';-inkscape-font-specification:'Noto Sans CJK TC Bold'"
         id="path3751"
         inkscape:connector-curvature="0" />
      <path
         d="m 119.84759,12.197834 0.9271,0 0,-2.120901 c 0.2032,-0.5143495 0.53975,-0.6984995 0.81915,-0.6984995 0.14605,0 0.24765,0.01905 0.3683,0.05715 l 0.1651,-0.80645 c -0.10795,-0.04445 -0.22225,-0.0762 -0.4191,-0.0762 -0.3683,0 -0.7493,0.254 -1.00965,0.71755 l -0.0254,0 -0.0635,-0.62865 -0.762,0 0,3.5560005 z"
         style="font-style:normal;font-variant:normal;font-weight:bold;font-stretch:normal;font-size:6.3499999px;font-family:'Noto Sans CJK TC';-inkscape-font-specification:'Noto Sans CJK TC Bold'"
         id="path3753"
         inkscape:connector-curvature="0" />
      <path
         d="m 123.78985,12.286734 c 0.3683,0 0.7239,-0.2032 0.98425,-0.4572 l 0.019,0 0.0762,0.3683 0.75565,0 0,-5.0673005 -0.93345,0 0,1.25095 0.0381,0.5588 c -0.254,-0.23495 -0.50165,-0.38735 -0.9017,-0.38735 -0.76835,0 -1.49225,0.7112 -1.49225,1.8732495 0,1.162051 0.5715,1.860551 1.45415,1.860551 z m 0.2413,-0.76835 c -0.4699,0 -0.7366,-0.3683 -0.7366,-1.104901 0,-0.7111995 0.33655,-1.0921995 0.7366,-1.0921995 0.22225,0 0.4445,0.06985 0.6604,0.2667 l 0,1.5621005 c -0.2032,0.2667 -0.41275,0.3683 -0.6604,0.3683 z"
         style="font-style:normal;font-variant:normal;font-weight:bold;font-stretch:normal;font-size:6.3499999px;font-family:'Noto Sans CJK TC';-inkscape-font-specification:'Noto Sans CJK TC Bold'"
         id="path3755"
         inkscape:connector-curvature="0" />
    </g>
    <flowRoot
       xml:space="preserve"
       id="flowRoot3581"
       style="font-style:normal;font-variant:normal;font-weight:500;font-stretch:normal;font-size:40px;line-height:125%;font-family:KacstLetter;-inkscape-font-specification:'KacstLetter Medium';letter-spacing:0px;word-spacing:0px;fill:#000000;fill-opacity:1;stroke:none;stroke-width:1px;stroke-linecap:butt;stroke-linejoin:miter;stroke-opacity:1"><flowRegion
         id="flowRegion3583"><rect
           id="rect3585"
           width="248.90158"
           height="94.045204"
           x="-741.755"
           y="-281.4928"
           style="font-style:normal;font-variant:normal;font-weight:500;font-stretch:normal;font-family:KacstLetter;-inkscape-font-specification:'KacstLetter Medium'" /></flowRegion><flowPara
         id="flowPara3587" /></flowRoot>    <g
       style="font-style:normal;font-weight:normal;font-size:11.28888893px;line-height:125%;font-family:sans-serif;letter-spacing:0px;word-spacing:0px;fill:#000000;fill-opacity:1;stroke:none;stroke-width:1px;stroke-linecap:butt;stroke-linejoin:miter;stroke-opacity:1"
       id="text3464">
      <path
         d="m 90.888927,61.796801 q 0.129191,0 0.21084,-0.03204 l 0,-0.299723 -0.242879,0 0,-0.266651 0.620117,0 0,0.742074 q -0.29869,0.144694 -0.639754,0.144694 -0.387573,0 -0.611849,-0.213941 -0.224276,-0.214974 -0.224276,-0.58601 0,-0.376205 0.22841,-0.588078 0.229443,-0.212907 0.629419,-0.212907 0.310059,0 0.561206,0.114721 l 0,0.319361 q -0.255282,-0.145728 -0.51263,-0.145728 -0.238745,0 -0.366903,0.133325 -0.128157,0.132292 -0.128157,0.379306 0,0.243912 0.122989,0.378271 0.12299,0.133325 0.353467,0.133325 z"
         style="font-style:normal;font-variant:normal;font-weight:bold;font-stretch:normal;font-size:2.11666679px;font-family:Waree;-inkscape-font-specification:'Waree Bold';fill:#ffffff"
         id="path3811" />
      <path
         d="m 92.762715,61.774064 -0.622184,0 -0.09819,0.281119 -0.399975,0 0.571541,-1.543058 0.47439,0 0.571541,1.543058 -0.399975,0 -0.09715,-0.281119 z m -0.522966,-0.286288 0.422714,0 -0.21084,-0.613916 -0.211874,0.613916 z"
         style="font-style:normal;font-variant:normal;font-weight:bold;font-stretch:normal;font-size:2.11666679px;font-family:Waree;-inkscape-font-specification:'Waree Bold';fill:#ffffff"
         id="path3813" />
      <path
         d="m 93.122383,60.512125 1.422135,0 0,0.300757 -0.511596,0 0,1.242301 -0.397909,0 0,-1.242301 -0.51263,0 0,-0.300757 z"
         style="font-style:normal;font-variant:normal;font-weight:bold;font-stretch:normal;font-size:2.11666679px;font-family:Waree;-inkscape-font-specification:'Waree Bold';fill:#ffffff"
         id="path3815" />
      <path
         d="m 94.749157,60.512125 1.073836,0 0,0.300757 -0.675928,0 0,0.287321 0.635621,0 0,0.300757 -0.635621,0 0,0.353467 0.698666,0 0,0.300756 -1.096574,0 0,-1.543058 z"
         style="font-style:normal;font-variant:normal;font-weight:bold;font-stretch:normal;font-size:2.11666679px;font-family:Waree;-inkscape-font-specification:'Waree Bold';fill:#ffffff"
         id="path3817" />
    </g>
    <g
       style="font-style:normal;font-weight:normal;font-size:11.28888893px;line-height:125%;font-family:sans-serif;letter-spacing:0px;word-spacing:0px;fill:#000000;fill-opacity:1;stroke:none;stroke-width:1px;stroke-linecap:butt;stroke-linejoin:miter;stroke-opacity:1"
       id="text3464-2">
      <path
         d="m 101.82369,61.44895 q 0.0227,-0.09198 0.0227,-0.204639 0,-0.112655 -0.0227,-0.204639 -0.0227,-0.09198 -0.0682,-0.16123 -0.0455,-0.07028 -0.11989,-0.108521 -0.0744,-0.03824 -0.1726,-0.03824 -0.12919,0 -0.21704,0.06821 -0.0868,0.06718 -0.12609,0.179834 -0.0393,0.112654 -0.0393,0.264583 0,0.232544 0.0951,0.37207 0.0961,0.139527 0.28732,0.139527 0.0982,0 0.1726,-0.03824 0.0744,-0.03824 0.11989,-0.107487 0.0455,-0.07028 0.0682,-0.16123 z m -0.94361,0.384472 q -0.21084,-0.21084 -0.21084,-0.589111 0,-0.378272 0.21084,-0.589111 0.21187,-0.211874 0.58291,-0.211874 0.37207,0 0.58291,0.21084 0.21084,0.21084 0.21084,0.590145 0,0.378271 -0.21187,0.589111 -0.21084,0.21084 -0.58188,0.21084 -0.37104,0 -0.58291,-0.21084 z"
         style="font-style:normal;font-variant:normal;font-weight:bold;font-stretch:normal;font-size:2.11666679px;font-family:Waree;-inkscape-font-specification:'Waree Bold';fill:#ffffff"
         id="path3800" />
      <path
         d="m 102.55646,60.471231 0.44442,0 0.56121,1.058334 0,-1.058334 0.37723,0 0,1.543059 -0.44441,0 -0.56121,-1.058334 0,1.058334 -0.37724,0 0,-1.543059 z"
         style="font-style:normal;font-variant:normal;font-weight:bold;font-stretch:normal;font-size:2.11666679px;font-family:Waree;-inkscape-font-specification:'Waree Bold';fill:#ffffff"
         id="path3802" />
      <path
         d="m 104.8819,60.471231 0.39998,0 0.40928,1.138949 0.40824,-1.138949 0.39998,0 -0.57155,1.543059 -0.47439,0 -0.57154,-1.543059 z"
         style="font-style:normal;font-variant:normal;font-weight:bold;font-stretch:normal;font-size:2.11666679px;font-family:Waree;-inkscape-font-specification:'Waree Bold';fill:#ffffff"
         id="path3804" />
      <path
         d="m 106.70298,60.471231 1.07384,0 0,0.300757 -0.67593,0 0,0.287321 0.63562,0 0,0.300757 -0.63562,0 0,0.353467 0.69866,0 0,0.300757 -1.09657,0 0,-1.543059 z"
         style="font-style:normal;font-variant:normal;font-weight:bold;font-stretch:normal;font-size:2.11666679px;font-family:Waree;-inkscape-font-specification:'Waree Bold';fill:#ffffff"
         id="path3806" />
      <path
         d="m 108.14992,60.471231 0.39791,0 0,1.242302 0.69866,0 0,0.300757 -1.09657,0 0,-1.543059 z"
         style="font-style:normal;font-variant:normal;font-weight:bold;font-stretch:normal;font-size:2.11666679px;font-family:Waree;-inkscape-font-specification:'Waree Bold';fill:#ffffff"
         id="path3808" />
    </g>
    <g
       style="font-style:normal;font-weight:normal;font-size:11.28888893px;line-height:125%;font-family:sans-serif;letter-spacing:0px;word-spacing:0px;fill:#000000;fill-opacity:1;stroke:none;stroke-width:1px;stroke-linecap:butt;stroke-linejoin:miter;stroke-opacity:1"
       id="text3486">
      <path
         d="m 81.062062,61.761523 q 0.231511,0 0.444417,-0.145728 l 0,0.319361 q -0.220141,0.114721 -0.476456,0.114721 -0.387574,0 -0.611849,-0.21394 -0.224276,-0.214974 -0.224276,-0.586011 0,-0.371037 0.223242,-0.586011 0.224276,-0.214974 0.612883,-0.214974 0.256315,0 0.476456,0.114722 l 0,0.319361 q -0.214973,-0.145728 -0.444417,-0.145728 -0.217041,0 -0.33693,0.138493 -0.11989,0.137459 -0.11989,0.374137 0,0.236678 0.11989,0.374138 0.119889,0.137459 0.33693,0.137459 z"
         style="font-style:normal;font-variant:normal;font-weight:bold;font-stretch:normal;font-size:2.11666679px;font-family:Waree;-inkscape-font-specification:'Waree Bold';fill:#ffffff"
         id="path3795" />
      <path
         d="m 81.653241,60.476847 0.399975,0 0.409278,1.138948 0.408243,-1.138948 0.399976,0 -0.571541,1.543058 -0.47439,0 -0.571541,-1.543058 z"
         style="font-style:normal;font-variant:normal;font-weight:bold;font-stretch:normal;font-size:2.11666679px;font-family:Waree;-inkscape-font-specification:'Waree Bold';fill:#ffffff"
         id="path3797" />
    </g>
    <g
       style="font-style:normal;font-weight:normal;font-size:11.28888893px;line-height:125%;font-family:sans-serif;letter-spacing:0px;word-spacing:0px;fill:#000000;fill-opacity:1;stroke:none;stroke-width:1px;stroke-linecap:butt;stroke-linejoin:miter;stroke-opacity:1"
       id="text3464-4">
      <path
         d="m 135.25802,60.363916 0.43511,0 0.3514,0.549838 0.3514,-0.549838 0.43615,0 -0.58808,0.892969 0,0.65009 -0.39791,0 0,-0.65009 -0.58807,-0.892969 z"
         style="font-style:normal;font-variant:normal;font-weight:bold;font-stretch:normal;font-size:2.11666679px;font-family:Waree;-inkscape-font-specification:'Waree Bold';fill:#ffffff"
         id="path3784" />
      <path
         d="m 138.679,61.625855 -0.62219,0 -0.0982,0.28112 -0.39998,0 0.57154,-1.543059 0.47439,0 0.57154,1.543059 -0.39997,0 -0.0971,-0.28112 z m -0.52297,-0.286287 0.42271,0 -0.21084,-0.613917 -0.21187,0.613917 z"
         style="font-style:normal;font-variant:normal;font-weight:bold;font-stretch:normal;font-size:2.11666679px;font-family:Waree;-inkscape-font-specification:'Waree Bold';fill:#ffffff"
         id="path3786" />
      <path
         d="m 140.23962,61.119426 0.53537,0.787549 -0.41444,0 -0.3607,-0.5271 -0.35761,0.5271 -0.41651,0 0.53537,-0.787549 -0.5147,-0.75551 0.41548,0 0.33797,0.497128 0.33693,-0.497128 0.41754,0 -0.5147,0.75551 z"
         style="font-style:normal;font-variant:normal;font-weight:bold;font-stretch:normal;font-size:2.11666679px;font-family:Waree;-inkscape-font-specification:'Waree Bold';fill:#ffffff"
         id="path3788" />
      <path
         d="m 141.0127,60.363916 0.39791,0 0,1.543059 -0.39791,0 0,-1.543059 z"
         style="font-style:normal;font-variant:normal;font-weight:bold;font-stretch:normal;font-size:2.11666679px;font-family:Waree;-inkscape-font-specification:'Waree Bold';fill:#ffffff"
         id="path3790" />
      <path
         d="m 142.33665,60.336011 q 0.25632,0 0.53951,0.07648 l 0,0.326595 q -0.25632,-0.114721 -0.47646,-0.114721 -0.1509,0 -0.21497,0.04237 -0.0641,0.04134 -0.0641,0.118856 0,0.06511 0.0496,0.09922 0.0496,0.03307 0.16329,0.05684 l 0.1695,0.03411 q 0.24805,0.04961 0.3607,0.153996 0.11369,0.103353 0.11369,0.302824 0,0.264583 -0.15709,0.384473 -0.1571,0.119889 -0.45682,0.119889 -0.29249,0 -0.59015,-0.110587 l 0,-0.335897 q 0.29972,0.15813 0.55191,0.15813 0.0816,0 0.13745,-0.0155 0.0568,-0.01654 0.0837,-0.04341 0.0269,-0.0279 0.0372,-0.05374 0.0103,-0.02584 0.0103,-0.05478 0,-0.07751 -0.0537,-0.115755 -0.0527,-0.03824 -0.18087,-0.06615 l -0.15399,-0.03411 q -0.22015,-0.04857 -0.3328,-0.152962 -0.11265,-0.104386 -0.11265,-0.297656 0,-0.238745 0.15296,-0.358635 0.15296,-0.119889 0.42374,-0.119889 z"
         style="font-style:normal;font-variant:normal;font-weight:bold;font-stretch:normal;font-size:2.11666679px;font-family:Waree;-inkscape-font-specification:'Waree Bold';fill:#ffffff"
         id="path3792" />
    </g>
    <g
       style="font-style:normal;font-weight:normal;font-size:11.28888893px;line-height:125%;font-family:sans-serif;letter-spacing:0px;word-spacing:0px;fill:#000000;fill-opacity:1;stroke:none;stroke-width:1px;stroke-linecap:butt;stroke-linejoin:miter;stroke-opacity:1"
       id="text3464-53">
      <path
         d="m 125.50372,60.490007 q 0.16226,0.12609 0.16226,0.377238 0,0.251147 -0.16226,0.378271 -0.16227,0.126091 -0.44752,0.126091 l -0.26252,0 0,0.535368 -0.39791,0 0,-1.543059 0.66043,0 q 0.28629,0 0.44752,0.126091 z m -0.24805,0.377238 q 0,-0.10542 -0.0641,-0.160197 -0.0631,-0.05478 -0.17777,-0.05478 l -0.22014,0 0,0.430981 0.22014,0 q 0.11472,0 0.17777,-0.05478 0.0641,-0.05581 0.0641,-0.16123 z"
         style="font-style:normal;font-variant:normal;font-weight:bold;font-stretch:normal;font-size:2.11666679px;font-family:Waree;-inkscape-font-specification:'Waree Bold';fill:#ffffff"
         id="path3771" />
      <path
         d="m 126.74498,60.848641 q 0,-0.10852 -0.0568,-0.151928 -0.0568,-0.04444 -0.17673,-0.04444 l -0.16744,0 0,0.395841 0.16744,0 q 0.12919,0 0.18086,-0.04858 0.0527,-0.04858 0.0527,-0.150896 z m 0.39791,-0.05891 q 0,0.302824 -0.29662,0.395842 0.0899,0.02067 0.15296,0.09198 0.0641,0.07131 0.12403,0.191203 l 0.216,0.438216 -0.42374,0 -0.18811,-0.383439 q -0.0527,-0.108521 -0.11162,-0.153996 -0.0579,-0.04651 -0.15916,-0.04651 l -0.11266,0 0,0.583944 -0.3979,0 0,-1.543059 0.60771,0 q 0.1664,0 0.28319,0.02997 0.11679,0.02997 0.18293,0.08785 0.0661,0.05788 0.094,0.133325 0.0289,0.07441 0.0289,0.174666 z"
         style="font-style:normal;font-variant:normal;font-weight:bold;font-stretch:normal;font-size:2.11666679px;font-family:Waree;-inkscape-font-specification:'Waree Bold';fill:#ffffff"
         id="path3773" />
      <path
         d="m 127.57491,60.363916 1.07383,0 0,0.300757 -0.67592,0 0,0.287321 0.63562,0 0,0.300757 -0.63562,0 0,0.353467 0.69866,0 0,0.300757 -1.09657,0 0,-1.543059 z"
         style="font-style:normal;font-variant:normal;font-weight:bold;font-stretch:normal;font-size:2.11666679px;font-family:Waree;-inkscape-font-specification:'Waree Bold';fill:#ffffff"
         id="path3775" />
      <path
         d="m 129.55618,60.336011 q 0.25632,0 0.5395,0.07648 l 0,0.326595 q -0.25631,-0.114721 -0.47645,-0.114721 -0.1509,0 -0.21498,0.04237 -0.0641,0.04134 -0.0641,0.118856 0,0.06511 0.0496,0.09922 0.0496,0.03307 0.1633,0.05684 l 0.1695,0.03411 q 0.24805,0.04961 0.3607,0.153996 0.11369,0.103353 0.11369,0.302824 0,0.264583 -0.1571,0.384473 -0.15709,0.119889 -0.45682,0.119889 -0.29248,0 -0.59014,-0.110587 l 0,-0.335897 q 0.29972,0.15813 0.5519,0.15813 0.0816,0 0.13746,-0.0155 0.0569,-0.01654 0.0837,-0.04341 0.0269,-0.0279 0.0372,-0.05374 0.0103,-0.02584 0.0103,-0.05478 0,-0.07751 -0.0537,-0.115755 -0.0527,-0.03824 -0.18087,-0.06615 l -0.154,-0.03411 q -0.22014,-0.04857 -0.33279,-0.152962 -0.11266,-0.104386 -0.11266,-0.297656 0,-0.238745 0.15297,-0.358635 0.15296,-0.119889 0.42374,-0.119889 z"
         style="font-style:normal;font-variant:normal;font-weight:bold;font-stretch:normal;font-size:2.11666679px;font-family:Waree;-inkscape-font-specification:'Waree Bold';fill:#ffffff"
         id="path3777" />
      <path
         d="m 131.08167,60.336011 q 0.25631,0 0.5395,0.07648 l 0,0.326595 q -0.25631,-0.114721 -0.47645,-0.114721 -0.1509,0 -0.21498,0.04237 -0.0641,0.04134 -0.0641,0.118856 0,0.06511 0.0496,0.09922 0.0496,0.03307 0.1633,0.05684 l 0.1695,0.03411 q 0.24804,0.04961 0.3607,0.153996 0.11369,0.103353 0.11369,0.302824 0,0.264583 -0.1571,0.384473 -0.1571,0.119889 -0.45682,0.119889 -0.29249,0 -0.59014,-0.110587 l 0,-0.335897 q 0.29972,0.15813 0.5519,0.15813 0.0816,0 0.13746,-0.0155 0.0568,-0.01654 0.0837,-0.04341 0.0269,-0.0279 0.0372,-0.05374 0.0103,-0.02584 0.0103,-0.05478 0,-0.07751 -0.0537,-0.115755 -0.0527,-0.03824 -0.18087,-0.06615 l -0.154,-0.03411 q -0.22014,-0.04857 -0.33279,-0.152962 -0.11266,-0.104386 -0.11266,-0.297656 0,-0.238745 0.15296,-0.358635 0.15297,-0.119889 0.42375,-0.119889 z"
         style="font-style:normal;font-variant:normal;font-weight:bold;font-stretch:normal;font-size:2.11666679px;font-family:Waree;-inkscape-font-specification:'Waree Bold';fill:#ffffff"
         id="path3779" />
      <path
         d="m 132.09453,61.506999 0.37207,0 0,0.399976 -0.37207,0 0,-0.399976 z"
         style="font-style:normal;font-variant:normal;font-weight:bold;font-stretch:normal;font-size:2.11666679px;font-family:Waree;-inkscape-font-specification:'Waree Bold';fill:#ffffff"
         id="path3781" />
    </g>
    <g
       style="font-style:normal;font-weight:normal;font-size:11.28888893px;line-height:125%;font-family:sans-serif;letter-spacing:0px;word-spacing:0px;fill:#000000;fill-opacity:1;stroke:none;stroke-width:1px;stroke-linecap:butt;stroke-linejoin:miter;stroke-opacity:1"
       id="text3464-20">
      <path
         d="m 112.54967,61.412191 q 0.0227,-0.09198 0.0227,-0.204638 0,-0.112655 -0.0227,-0.204639 -0.0227,-0.09198 -0.0682,-0.161231 -0.0455,-0.07028 -0.11989,-0.10852 -0.0744,-0.03824 -0.1726,-0.03824 -0.12919,0 -0.21704,0.06821 -0.0868,0.06718 -0.12609,0.179834 -0.0393,0.112655 -0.0393,0.264584 0,0.232544 0.0951,0.37207 0.0961,0.139526 0.28732,0.139526 0.0982,0 0.1726,-0.03824 0.0744,-0.03824 0.11989,-0.107487 0.0455,-0.07028 0.0682,-0.161231 z m -0.94361,0.384473 q -0.21084,-0.21084 -0.21084,-0.589111 0,-0.378272 0.21084,-0.589112 0.21188,-0.211873 0.58291,-0.211873 0.37207,0 0.58291,0.21084 0.21084,0.21084 0.21084,0.590145 0,0.378271 -0.21187,0.589111 -0.21084,0.21084 -0.58188,0.21084 -0.37103,0 -0.58291,-0.21084 z"
         style="font-style:normal;font-variant:normal;font-weight:bold;font-stretch:normal;font-size:2.11666679px;font-family:Waree;-inkscape-font-specification:'Waree Bold';fill:#ffffff"
         id="path3758" />
      <path
         d="m 113.28245,60.434473 1.07383,0 0,0.300757 -0.67593,0 0,0.287321 0.63562,0 0,0.300757 -0.63562,0 0,0.654223 -0.3979,0 0,-1.543058 z"
         style="font-style:normal;font-variant:normal;font-weight:bold;font-stretch:normal;font-size:2.11666679px;font-family:Waree;-inkscape-font-specification:'Waree Bold';fill:#ffffff"
         id="path3760" />
      <path
         d="m 114.72939,60.434473 1.07383,0 0,0.300757 -0.67593,0 0,0.287321 0.63562,0 0,0.300757 -0.63562,0 0,0.654223 -0.3979,0 0,-1.543058 z"
         style="font-style:normal;font-variant:normal;font-weight:bold;font-stretch:normal;font-size:2.11666679px;font-family:Waree;-inkscape-font-specification:'Waree Bold';fill:#ffffff"
         id="path3762" />
      <path
         d="m 116.72823,60.434473 0.39998,0 0.40927,1.138949 0.40825,-1.138949 0.39997,0 -0.57154,1.543058 -0.47439,0 -0.57154,-1.543058 z"
         style="font-style:normal;font-variant:normal;font-weight:bold;font-stretch:normal;font-size:2.11666679px;font-family:Waree;-inkscape-font-specification:'Waree Bold';fill:#ffffff"
         id="path3764" />
      <path
         d="m 118.54931,60.434473 1.07383,0 0,0.300757 -0.67592,0 0,0.287321 0.63562,0 0,0.300757 -0.63562,0 0,0.353467 0.69866,0 0,0.300756 -1.09657,0 0,-1.543058 z"
         style="font-style:normal;font-variant:normal;font-weight:bold;font-stretch:normal;font-size:2.11666679px;font-family:Waree;-inkscape-font-specification:'Waree Bold';fill:#ffffff"
         id="path3766" />
      <path
         d="m 119.99625,60.434473 0.39791,0 0,1.242302 0.69866,0 0,0.300756 -1.09657,0 0,-1.543058 z"
         style="font-style:normal;font-variant:normal;font-weight:bold;font-stretch:normal;font-size:2.11666679px;font-family:Waree;-inkscape-font-specification:'Waree Bold';fill:#ffffff"
         id="path3768" />
    </g>
    <path
       inkscape:connector-curvature="0"
       id="path4075-7"
       d="m 144.6245,75.639386 c 0,-0.54984 -0.68649,-0.99908 -1.52413,-0.99908 l -64.718873,0 c -0.83764,0 -1.52203,0.44924 -1.52203,0.99908 l 0,12.172209 c 0,0.551211 0.68439,1.000451 1.52203,1.000451 l 64.718873,0 c 0.83764,0 1.52413,-0.44924 1.52413,-1.000451 z m 0,0"
       style="fill:#000000;fill-opacity:1;fill-rule:nonzero;stroke:none;stroke-width:0.35277775" />
    <path
       inkscape:connector-curvature="0"
       id="path4595-7"
       d="m 121.34117,75.639386 c 0,-0.54984 -0.45062,-0.99908 -1.00046,-0.99908 l -7.68118,0 c -0.55122,0 -1.00046,0.44924 -1.00046,0.99908 l 0,12.172209 c 0,0.551211 0.44924,1.000451 1.00046,1.000451 l 7.68118,0 c 0.54984,0 1.00046,-0.44924 1.00046,-1.000451 z m 0,0"
       style="fill:#000000;fill-opacity:1;fill-rule:nonzero;stroke:none;stroke-width:0.35277775" />
    <path
       inkscape:connector-curvature="0"
       id="path4597-7"
       d="m 109.74084,75.639386 c 0,-0.54984 -0.44924,-0.99908 -1.00045,-0.99908 l -7.68119,0 c -0.54984,0 -1.00045,0.44924 -1.00045,0.99908 l 0,12.172209 c 0,0.551211 0.45061,1.000451 1.00045,1.000451 l 7.68119,0 c 0.55121,0 1.00045,-0.44924 1.00045,-1.000451 z m 0,0"
       style="fill:#000000;fill-opacity:1;fill-rule:nonzero;stroke:none;stroke-width:0.35277775" />
    <path
       inkscape:connector-curvature="0"
       id="path4599-0"
       d="m 98.140517,75.639386 c 0,-0.54984 -0.44924,-0.99908 -0.99908,-0.99908 l -7.68257,0 c -0.54983,0 -1.00045,0.44924 -1.00045,0.99908 l 0,12.172209 c 0,0.551211 0.45062,1.000451 1.00045,1.000451 l 7.68257,0 c 0.54984,0 0.99908,-0.44924 0.99908,-1.000451 z m 0,0"
       style="fill:#000000;fill-opacity:1;fill-rule:nonzero;stroke:none;stroke-width:0.35277775" />
    <g
       style="font-style:normal;font-weight:normal;font-size:11.28888893px;line-height:125%;font-family:sans-serif;letter-spacing:0px;word-spacing:0px;fill:#000000;fill-opacity:1;stroke:none;stroke-width:1px;stroke-linecap:butt;stroke-linejoin:miter;stroke-opacity:1"
       id="text3464-9">
      <path
         d="m 90.920643,77.506205 q 0.129191,0 0.21084,-0.03204 l 0,-0.299723 -0.24288,0 0,-0.266651 0.620117,0 0,0.742074 q -0.298689,0.144694 -0.639754,0.144694 -0.387573,0 -0.611849,-0.213941 -0.224276,-0.214974 -0.224276,-0.58601 0,-0.376205 0.22841,-0.588078 0.229444,-0.212907 0.629419,-0.212907 0.310059,0 0.561206,0.114721 l 0,0.319361 q -0.255281,-0.145728 -0.51263,-0.145728 -0.238745,0 -0.366903,0.133325 -0.128157,0.132292 -0.128157,0.379306 0,0.243912 0.12299,0.378271 0.12299,0.133325 0.353467,0.133325 z"
         style="font-style:normal;font-variant:normal;font-weight:bold;font-stretch:normal;font-size:2.11666679px;font-family:Waree;-inkscape-font-specification:'Waree Bold';fill:#ffffff"
         id="path3873" />
      <path
         d="m 92.79443,77.483468 -0.622184,0 -0.09819,0.281119 -0.399976,0 0.571541,-1.543058 0.47439,0 0.571542,1.543058 -0.399976,0 -0.09715,-0.281119 z m -0.522965,-0.286288 0.422713,0 -0.21084,-0.613916 -0.211873,0.613916 z"
         style="font-style:normal;font-variant:normal;font-weight:bold;font-stretch:normal;font-size:2.11666679px;font-family:Waree;-inkscape-font-specification:'Waree Bold';fill:#ffffff"
         id="path3875" />
      <path
         d="m 93.154098,76.221529 1.422136,0 0,0.300757 -0.511597,0 0,1.242301 -0.397908,0 0,-1.242301 -0.512631,0 0,-0.300757 z"
         style="font-style:normal;font-variant:normal;font-weight:bold;font-stretch:normal;font-size:2.11666679px;font-family:Waree;-inkscape-font-specification:'Waree Bold';fill:#ffffff"
         id="path3877" />
      <path
         d="m 94.780872,76.221529 1.073837,0 0,0.300757 -0.675928,0 0,0.287321 0.63562,0 0,0.300757 -0.63562,0 0,0.353467 0.698665,0 0,0.300756 -1.096574,0 0,-1.543058 z"
         style="font-style:normal;font-variant:normal;font-weight:bold;font-stretch:normal;font-size:2.11666679px;font-family:Waree;-inkscape-font-specification:'Waree Bold';fill:#ffffff"
         id="path3879" />
    </g>
    <g
       style="font-style:normal;font-weight:normal;font-size:11.28888893px;line-height:125%;font-family:sans-serif;letter-spacing:0px;word-spacing:0px;fill:#000000;fill-opacity:1;stroke:none;stroke-width:1px;stroke-linecap:butt;stroke-linejoin:miter;stroke-opacity:1"
       id="text3464-2-0">
      <path
         d="m 101.8554,77.158354 q 0.0227,-0.09198 0.0227,-0.204639 0,-0.112655 -0.0227,-0.204639 -0.0227,-0.09198 -0.0682,-0.16123 -0.0455,-0.07028 -0.11989,-0.108521 -0.0744,-0.03824 -0.1726,-0.03824 -0.12919,0 -0.21704,0.06821 -0.0868,0.06718 -0.12609,0.179834 -0.0393,0.112654 -0.0393,0.264583 0,0.232544 0.0951,0.37207 0.0961,0.139527 0.28732,0.139527 0.0982,0 0.1726,-0.03824 0.0744,-0.03824 0.11989,-0.107487 0.0455,-0.07028 0.0682,-0.16123 z m -0.94361,0.384472 q -0.21084,-0.21084 -0.21084,-0.589111 0,-0.378272 0.21084,-0.589111 0.21187,-0.211874 0.58291,-0.211874 0.37207,0 0.58291,0.21084 0.21084,0.21084 0.21084,0.590145 0,0.378271 -0.21188,0.589111 -0.21084,0.21084 -0.58187,0.21084 -0.37104,0 -0.58291,-0.21084 z"
         style="font-style:normal;font-variant:normal;font-weight:bold;font-stretch:normal;font-size:2.11666679px;font-family:Waree;-inkscape-font-specification:'Waree Bold';fill:#ffffff"
         id="path3862" />
      <path
         d="m 102.58817,76.180635 0.44442,0 0.5612,1.058334 0,-1.058334 0.37724,0 0,1.543059 -0.44441,0 -0.56121,-1.058334 0,1.058334 -0.37724,0 0,-1.543059 z"
         style="font-style:normal;font-variant:normal;font-weight:bold;font-stretch:normal;font-size:2.11666679px;font-family:Waree;-inkscape-font-specification:'Waree Bold';fill:#ffffff"
         id="path3864" />
      <path
         d="m 104.91361,76.180635 0.39998,0 0.40927,1.138949 0.40825,-1.138949 0.39997,0 -0.57154,1.543059 -0.47439,0 -0.57154,-1.543059 z"
         style="font-style:normal;font-variant:normal;font-weight:bold;font-stretch:normal;font-size:2.11666679px;font-family:Waree;-inkscape-font-specification:'Waree Bold';fill:#ffffff"
         id="path3866" />
      <path
         d="m 106.73469,76.180635 1.07383,0 0,0.300757 -0.67592,0 0,0.287321 0.63562,0 0,0.300757 -0.63562,0 0,0.353467 0.69866,0 0,0.300757 -1.09657,0 0,-1.543059 z"
         style="font-style:normal;font-variant:normal;font-weight:bold;font-stretch:normal;font-size:2.11666679px;font-family:Waree;-inkscape-font-specification:'Waree Bold';fill:#ffffff"
         id="path3868" />
      <path
         d="m 108.18163,76.180635 0.39791,0 0,1.242302 0.69866,0 0,0.300757 -1.09657,0 0,-1.543059 z"
         style="font-style:normal;font-variant:normal;font-weight:bold;font-stretch:normal;font-size:2.11666679px;font-family:Waree;-inkscape-font-specification:'Waree Bold';fill:#ffffff"
         id="path3870" />
    </g>
    <g
       style="font-style:normal;font-weight:normal;font-size:11.28888893px;line-height:125%;font-family:sans-serif;letter-spacing:0px;word-spacing:0px;fill:#000000;fill-opacity:1;stroke:none;stroke-width:1px;stroke-linecap:butt;stroke-linejoin:miter;stroke-opacity:1"
       id="text3486-1">
      <path
         d="m 81.09377,77.470927 q 0.23151,0 0.444417,-0.145728 l 0,0.319361 q -0.220141,0.114721 -0.476456,0.114721 -0.387574,0 -0.611849,-0.21394 -0.224276,-0.214974 -0.224276,-0.586011 0,-0.371037 0.223242,-0.586011 0.224276,-0.214974 0.612883,-0.214974 0.256315,0 0.476456,0.114722 l 0,0.319361 Q 81.323213,76.4467 81.09377,76.4467 q -0.217041,0 -0.33693,0.138493 -0.11989,0.137459 -0.11989,0.374137 0,0.236678 0.11989,0.374138 0.119889,0.137459 0.33693,0.137459 z"
         style="font-style:normal;font-variant:normal;font-weight:bold;font-stretch:normal;font-size:2.11666679px;font-family:Waree;-inkscape-font-specification:'Waree Bold';fill:#ffffff"
         id="path3857" />
      <path
         d="m 81.684948,76.186251 0.399976,0 0.409277,1.138948 0.408244,-1.138948 0.399976,0 -0.571542,1.543058 -0.474389,0 -0.571542,-1.543058 z"
         style="font-style:normal;font-variant:normal;font-weight:bold;font-stretch:normal;font-size:2.11666679px;font-family:Waree;-inkscape-font-specification:'Waree Bold';fill:#ffffff"
         id="path3859" />
    </g>
    <g
       style="font-style:normal;font-weight:normal;font-size:11.28888893px;line-height:125%;font-family:sans-serif;letter-spacing:0px;word-spacing:0px;fill:#000000;fill-opacity:1;stroke:none;stroke-width:1px;stroke-linecap:butt;stroke-linejoin:miter;stroke-opacity:1"
       id="text3464-4-8">
      <path
         d="m 135.28972,76.07332 0.43512,0 0.3514,0.549838 0.3514,-0.549838 0.43615,0 -0.58808,0.892969 0,0.65009 -0.39791,0 0,-0.65009 -0.58808,-0.892969 z"
         style="font-style:normal;font-variant:normal;font-weight:bold;font-stretch:normal;font-size:2.11666679px;font-family:Waree;-inkscape-font-specification:'Waree Bold';fill:#ffffff"
         id="path3846" />
      <path
         d="m 138.7107,77.335259 -0.62218,0 -0.0982,0.28112 -0.39997,0 0.57154,-1.543059 0.47439,0 0.57154,1.543059 -0.39997,0 -0.0972,-0.28112 z m -0.52296,-0.286287 0.42271,0 -0.21084,-0.613917 -0.21187,0.613917 z"
         style="font-style:normal;font-variant:normal;font-weight:bold;font-stretch:normal;font-size:2.11666679px;font-family:Waree;-inkscape-font-specification:'Waree Bold';fill:#ffffff"
         id="path3848" />
      <path
         d="m 140.27133,76.82883 0.53537,0.787549 -0.41445,0 -0.3607,-0.5271 -0.3576,0.5271 -0.41651,0 0.53537,-0.787549 -0.5147,-0.75551 0.41548,0 0.33796,0.497128 0.33693,-0.497128 0.41755,0 -0.5147,0.75551 z"
         style="font-style:normal;font-variant:normal;font-weight:bold;font-stretch:normal;font-size:2.11666679px;font-family:Waree;-inkscape-font-specification:'Waree Bold';fill:#ffffff"
         id="path3850" />
      <path
         d="m 141.04441,76.07332 0.39791,0 0,1.543059 -0.39791,0 0,-1.543059 z"
         style="font-style:normal;font-variant:normal;font-weight:bold;font-stretch:normal;font-size:2.11666679px;font-family:Waree;-inkscape-font-specification:'Waree Bold';fill:#ffffff"
         id="path3852" />
      <path
         d="m 142.36836,76.045415 q 0.25632,0 0.5395,0.07648 l 0,0.326595 q -0.25631,-0.114721 -0.47645,-0.114721 -0.1509,0 -0.21498,0.04237 -0.0641,0.04134 -0.0641,0.118856 0,0.06511 0.0496,0.09922 0.0496,0.03307 0.1633,0.05684 l 0.1695,0.03411 q 0.24805,0.04961 0.3607,0.153996 0.11369,0.103353 0.11369,0.302824 0,0.264583 -0.1571,0.384473 -0.15709,0.119889 -0.45682,0.119889 -0.29248,0 -0.59014,-0.110587 l 0,-0.335897 q 0.29972,0.15813 0.5519,0.15813 0.0816,0 0.13746,-0.0155 0.0568,-0.01654 0.0837,-0.04341 0.0269,-0.02791 0.0372,-0.05374 0.0103,-0.02584 0.0103,-0.05478 0,-0.07752 -0.0537,-0.115755 -0.0527,-0.03824 -0.18087,-0.06615 l -0.154,-0.03411 q -0.22014,-0.04857 -0.33279,-0.152962 -0.11266,-0.104386 -0.11266,-0.297656 0,-0.238745 0.15297,-0.358635 0.15296,-0.119889 0.42374,-0.119889 z"
         style="font-style:normal;font-variant:normal;font-weight:bold;font-stretch:normal;font-size:2.11666679px;font-family:Waree;-inkscape-font-specification:'Waree Bold';fill:#ffffff"
         id="path3854" />
    </g>
    <g
       style="font-style:normal;font-weight:normal;font-size:11.28888893px;line-height:125%;font-family:sans-serif;letter-spacing:0px;word-spacing:0px;fill:#000000;fill-opacity:1;stroke:none;stroke-width:1px;stroke-linecap:butt;stroke-linejoin:miter;stroke-opacity:1"
       id="text3464-53-0">
      <path
         d="m 125.53542,76.199411 q 0.16227,0.12609 0.16227,0.377238 0,0.251147 -0.16227,0.378271 -0.16226,0.126091 -0.44751,0.126091 l -0.26252,0 0,0.535368 -0.39791,0 0,-1.543059 0.66043,0 q 0.28628,0 0.44751,0.126091 z m -0.24804,0.377238 q 0,-0.10542 -0.0641,-0.160197 -0.063,-0.05478 -0.17777,-0.05478 l -0.22014,0 0,0.430981 0.22014,0 q 0.11472,0 0.17777,-0.05478 0.0641,-0.05581 0.0641,-0.16123 z"
         style="font-style:normal;font-variant:normal;font-weight:bold;font-stretch:normal;font-size:2.11666679px;font-family:Waree;-inkscape-font-specification:'Waree Bold';fill:#ffffff"
         id="path3833" />
      <path
         d="m 126.77669,76.558045 q 0,-0.10852 -0.0568,-0.151928 -0.0568,-0.04444 -0.17674,-0.04444 l -0.16743,0 0,0.395841 0.16743,0 q 0.12919,0 0.18087,-0.04857 0.0527,-0.04858 0.0527,-0.150896 z m 0.39791,-0.05891 q 0,0.302824 -0.29662,0.395842 0.0899,0.02067 0.15296,0.09198 0.0641,0.07131 0.12402,0.191203 l 0.21601,0.438216 -0.42375,0 -0.1881,-0.383439 q -0.0527,-0.108521 -0.11162,-0.153996 -0.0579,-0.04651 -0.15916,-0.04651 l -0.11266,0 0,0.583944 -0.39791,0 0,-1.543059 0.60772,0 q 0.1664,0 0.28319,0.02997 0.11678,0.02997 0.18293,0.08785 0.0662,0.05788 0.0941,0.133325 0.0289,0.07441 0.0289,0.174666 z"
         style="font-style:normal;font-variant:normal;font-weight:bold;font-stretch:normal;font-size:2.11666679px;font-family:Waree;-inkscape-font-specification:'Waree Bold';fill:#ffffff"
         id="path3835" />
      <path
         d="m 127.60661,76.07332 1.07384,0 0,0.300757 -0.67593,0 0,0.287321 0.63562,0 0,0.300757 -0.63562,0 0,0.353467 0.69867,0 0,0.300757 -1.09658,0 0,-1.543059 z"
         style="font-style:normal;font-variant:normal;font-weight:bold;font-stretch:normal;font-size:2.11666679px;font-family:Waree;-inkscape-font-specification:'Waree Bold';fill:#ffffff"
         id="path3837" />
      <path
         d="m 129.58789,76.045415 q 0.25631,0 0.5395,0.07648 l 0,0.326595 q -0.25631,-0.114721 -0.47646,-0.114721 -0.15089,0 -0.21497,0.04237 -0.0641,0.04134 -0.0641,0.118856 0,0.06511 0.0496,0.09922 0.0496,0.03307 0.1633,0.05684 l 0.1695,0.03411 q 0.24804,0.04961 0.3607,0.153996 0.11369,0.103353 0.11369,0.302824 0,0.264583 -0.1571,0.384473 -0.1571,0.119889 -0.45682,0.119889 -0.29249,0 -0.59014,-0.110587 l 0,-0.335897 q 0.29972,0.15813 0.5519,0.15813 0.0817,0 0.13746,-0.0155 0.0568,-0.01654 0.0837,-0.04341 0.0269,-0.02791 0.0372,-0.05374 0.0103,-0.02584 0.0103,-0.05478 0,-0.07752 -0.0537,-0.115755 -0.0527,-0.03824 -0.18086,-0.06615 l -0.154,-0.03411 q -0.22014,-0.04857 -0.33279,-0.152962 -0.11266,-0.104386 -0.11266,-0.297656 0,-0.238745 0.15296,-0.358635 0.15297,-0.119889 0.42375,-0.119889 z"
         style="font-style:normal;font-variant:normal;font-weight:bold;font-stretch:normal;font-size:2.11666679px;font-family:Waree;-inkscape-font-specification:'Waree Bold';fill:#ffffff"
         id="path3839" />
      <path
         d="m 131.11338,76.045415 q 0.25631,0 0.5395,0.07648 l 0,0.326595 q -0.25632,-0.114721 -0.47646,-0.114721 -0.15089,0 -0.21497,0.04237 -0.0641,0.04134 -0.0641,0.118856 0,0.06511 0.0496,0.09922 0.0496,0.03307 0.1633,0.05684 l 0.1695,0.03411 q 0.24804,0.04961 0.3607,0.153996 0.11369,0.103353 0.11369,0.302824 0,0.264583 -0.1571,0.384473 -0.1571,0.119889 -0.45682,0.119889 -0.29249,0 -0.59015,-0.110587 l 0,-0.335897 q 0.29973,0.15813 0.55191,0.15813 0.0816,0 0.13746,-0.0155 0.0568,-0.01654 0.0837,-0.04341 0.0269,-0.02791 0.0372,-0.05374 0.0103,-0.02584 0.0103,-0.05478 0,-0.07752 -0.0538,-0.115755 -0.0527,-0.03824 -0.18086,-0.06615 l -0.154,-0.03411 q -0.22014,-0.04857 -0.3328,-0.152962 -0.11265,-0.104386 -0.11265,-0.297656 0,-0.238745 0.15296,-0.358635 0.15296,-0.119889 0.42375,-0.119889 z"
         style="font-style:normal;font-variant:normal;font-weight:bold;font-stretch:normal;font-size:2.11666679px;font-family:Waree;-inkscape-font-specification:'Waree Bold';fill:#ffffff"
         id="path3841" />
      <path
         d="m 132.12624,77.216403 0.37207,0 0,0.399976 -0.37207,0 0,-0.399976 z"
         style="font-style:normal;font-variant:normal;font-weight:bold;font-stretch:normal;font-size:2.11666679px;font-family:Waree;-inkscape-font-specification:'Waree Bold';fill:#ffffff"
         id="path3843" />
    </g>
    <g
       style="font-style:normal;font-weight:normal;font-size:11.28888893px;line-height:125%;font-family:sans-serif;letter-spacing:0px;word-spacing:0px;fill:#000000;fill-opacity:1;stroke:none;stroke-width:1px;stroke-linecap:butt;stroke-linejoin:miter;stroke-opacity:1"
       id="text3464-20-1">
      <path
         d="m 112.58138,77.121595 q 0.0227,-0.09198 0.0227,-0.204638 0,-0.112655 -0.0227,-0.204639 -0.0227,-0.09198 -0.0682,-0.161231 -0.0455,-0.07028 -0.11989,-0.10852 -0.0744,-0.03824 -0.1726,-0.03824 -0.12919,0 -0.21704,0.06821 -0.0868,0.06718 -0.12609,0.179834 -0.0393,0.112655 -0.0393,0.264584 0,0.232543 0.0951,0.37207 0.0961,0.139526 0.28732,0.139526 0.0982,0 0.1726,-0.03824 0.0744,-0.03824 0.11989,-0.107487 0.0455,-0.07028 0.0682,-0.161231 z m -0.94361,0.384473 q -0.21084,-0.21084 -0.21084,-0.589111 0,-0.378272 0.21084,-0.589112 0.21187,-0.211873 0.58291,-0.211873 0.37207,0 0.58291,0.21084 0.21084,0.21084 0.21084,0.590145 0,0.378271 -0.21187,0.589111 -0.21084,0.21084 -0.58188,0.21084 -0.37104,0 -0.58291,-0.21084 z"
         style="font-style:normal;font-variant:normal;font-weight:bold;font-stretch:normal;font-size:2.11666679px;font-family:Waree;-inkscape-font-specification:'Waree Bold';fill:#ffffff"
         id="path3820" />
      <path
         d="m 113.31415,76.143877 1.07384,0 0,0.300757 -0.67593,0 0,0.287321 0.63562,0 0,0.300757 -0.63562,0 0,0.654223 -0.39791,0 0,-1.543058 z"
         style="font-style:normal;font-variant:normal;font-weight:bold;font-stretch:normal;font-size:2.11666679px;font-family:Waree;-inkscape-font-specification:'Waree Bold';fill:#ffffff"
         id="path3822" />
      <path
         d="m 114.76109,76.143877 1.07384,0 0,0.300757 -0.67593,0 0,0.287321 0.63562,0 0,0.300757 -0.63562,0 0,0.654223 -0.39791,0 0,-1.543058 z"
         style="font-style:normal;font-variant:normal;font-weight:bold;font-stretch:normal;font-size:2.11666679px;font-family:Waree;-inkscape-font-specification:'Waree Bold';fill:#ffffff"
         id="path3824" />
      <path
         d="m 116.75994,76.143877 0.39997,0 0.40928,1.138949 0.40825,-1.138949 0.39997,0 -0.57154,1.543058 -0.47439,0 -0.57154,-1.543058 z"
         style="font-style:normal;font-variant:normal;font-weight:bold;font-stretch:normal;font-size:2.11666679px;font-family:Waree;-inkscape-font-specification:'Waree Bold';fill:#ffffff"
         id="path3826" />
      <path
         d="m 118.58102,76.143877 1.07383,0 0,0.300757 -0.67593,0 0,0.287321 0.63562,0 0,0.300757 -0.63562,0 0,0.353467 0.69867,0 0,0.300756 -1.09657,0 0,-1.543058 z"
         style="font-style:normal;font-variant:normal;font-weight:bold;font-stretch:normal;font-size:2.11666679px;font-family:Waree;-inkscape-font-specification:'Waree Bold';fill:#ffffff"
         id="path3828" />
      <path
         d="m 120.02796,76.143877 0.3979,0 0,1.242302 0.69867,0 0,0.300756 -1.09657,0 0,-1.543058 z"
         style="font-style:normal;font-variant:normal;font-weight:bold;font-stretch:normal;font-size:2.11666679px;font-family:Waree;-inkscape-font-specification:'Waree Bold';fill:#ffffff"
         id="path3830" />
    </g>
    <path
       inkscape:connector-curvature="0"
       id="path4075-71"
       d="m 144.61355,92.073518 c 0,-0.549837 -0.68649,-0.999077 -1.52413,-0.999077 l -64.718871,0 c -0.83764,0 -1.522031,0.44924 -1.522031,0.999077 l 0,12.172212 c 0,0.55121 0.684391,1.00045 1.522031,1.00045 l 64.718871,0 c 0.83764,0 1.52413,-0.44924 1.52413,-1.00045 z m 0,0"
       style="fill:#000000;fill-opacity:1;fill-rule:nonzero;stroke:none;stroke-width:0.35277775" />
    <path
       inkscape:connector-curvature="0"
       id="path4595-5"
       d="m 121.33022,92.073518 c 0,-0.549837 -0.45062,-0.999077 -1.00046,-0.999077 l -7.68118,0 c -0.55122,0 -1.00046,0.44924 -1.00046,0.999077 l 0,12.172212 c 0,0.55121 0.44924,1.00045 1.00046,1.00045 l 7.68118,0 c 0.54984,0 1.00046,-0.44924 1.00046,-1.00045 z m 0,0"
       style="fill:#000000;fill-opacity:1;fill-rule:nonzero;stroke:none;stroke-width:0.35277775" />
    <path
       inkscape:connector-curvature="0"
       id="path4597-1"
       d="m 109.72989,92.073518 c 0,-0.549837 -0.44924,-0.999077 -1.00045,-0.999077 l -7.68119,0 c -0.54984,0 -1.00045,0.44924 -1.00045,0.999077 l 0,12.172212 c 0,0.55121 0.45061,1.00045 1.00045,1.00045 l 7.68119,0 c 0.55121,0 1.00045,-0.44924 1.00045,-1.00045 z m 0,0"
       style="fill:#000000;fill-opacity:1;fill-rule:nonzero;stroke:none;stroke-width:0.35277775" />
    <path
       inkscape:connector-curvature="0"
       id="path4599-2"
       d="m 98.129559,92.073518 c 0,-0.549837 -0.44924,-0.999077 -0.99907,-0.999077 l -7.68257,0 c -0.54983,0 -1.00045,0.44924 -1.00045,0.999077 l 0,12.172212 c 0,0.55121 0.45062,1.00045 1.00045,1.00045 l 7.68257,0 c 0.54983,0 0.99907,-0.44924 0.99907,-1.00045 z m 0,0"
       style="fill:#000000;fill-opacity:1;fill-rule:nonzero;stroke:none;stroke-width:0.35277775" />
    <g
       style="font-style:normal;font-weight:normal;font-size:11.28888893px;line-height:125%;font-family:sans-serif;letter-spacing:0px;word-spacing:0px;fill:#000000;fill-opacity:1;stroke:none;stroke-width:1px;stroke-linecap:butt;stroke-linejoin:miter;stroke-opacity:1"
       id="text3464-21">
      <path
         d="m 90.909687,93.940333 q 0.129191,0 0.21084,-0.03204 l 0,-0.299724 -0.24288,0 0,-0.26665 0.620118,0 0,0.742074 q -0.29869,0.144694 -0.639755,0.144694 -0.387573,0 -0.611849,-0.213941 -0.224275,-0.214974 -0.224275,-0.586011 0,-0.376204 0.22841,-0.588078 0.229443,-0.212906 0.629419,-0.212906 0.310058,0 0.561206,0.114721 l 0,0.319361 q -0.255282,-0.145728 -0.512631,-0.145728 -0.238745,0 -0.366902,0.133325 -0.128158,0.132292 -0.128158,0.379305 0,0.243913 0.12299,0.378272 0.12299,0.133325 0.353467,0.133325 z"
         style="font-style:normal;font-variant:normal;font-weight:bold;font-stretch:normal;font-size:2.11666679px;font-family:Waree;-inkscape-font-specification:'Waree Bold';fill:#ffffff"
         id="path3935" />
      <path
         d="m 92.783474,93.917595 -0.622184,0 -0.09819,0.28112 -0.399976,0 0.571542,-1.543058 0.474389,0 0.571542,1.543058 -0.399976,0 -0.09715,-0.28112 z m -0.522965,-0.286287 0.422713,0 -0.21084,-0.613916 -0.211873,0.613916 z"
         style="font-style:normal;font-variant:normal;font-weight:bold;font-stretch:normal;font-size:2.11666679px;font-family:Waree;-inkscape-font-specification:'Waree Bold';fill:#ffffff"
         id="path3937" />
      <path
         d="m 93.143143,92.655657 1.422135,0 0,0.300757 -0.511597,0 0,1.242301 -0.397908,0 0,-1.242301 -0.51263,0 0,-0.300757 z"
         style="font-style:normal;font-variant:normal;font-weight:bold;font-stretch:normal;font-size:2.11666679px;font-family:Waree;-inkscape-font-specification:'Waree Bold';fill:#ffffff"
         id="path3939" />
      <path
         d="m 94.769916,92.655657 1.073837,0 0,0.300757 -0.675928,0 0,0.287321 0.63562,0 0,0.300757 -0.63562,0 0,0.353466 0.698665,0 0,0.300757 -1.096574,0 0,-1.543058 z"
         style="font-style:normal;font-variant:normal;font-weight:bold;font-stretch:normal;font-size:2.11666679px;font-family:Waree;-inkscape-font-specification:'Waree Bold';fill:#ffffff"
         id="path3941" />
    </g>
    <g
       style="font-style:normal;font-weight:normal;font-size:11.28888893px;line-height:125%;font-family:sans-serif;letter-spacing:0px;word-spacing:0px;fill:#000000;fill-opacity:1;stroke:none;stroke-width:1px;stroke-linecap:butt;stroke-linejoin:miter;stroke-opacity:1"
       id="text3464-2-2">
      <path
         d="m 101.84445,93.592489 q 0.0227,-0.09198 0.0227,-0.204639 0,-0.112654 -0.0227,-0.204638 -0.0227,-0.09198 -0.0682,-0.161231 -0.0455,-0.07028 -0.11989,-0.10852 -0.0744,-0.03824 -0.1726,-0.03824 -0.12919,0 -0.21704,0.06821 -0.0868,0.06718 -0.12609,0.179834 -0.0393,0.112655 -0.0393,0.264583 0,0.232544 0.0951,0.372071 0.0961,0.139526 0.28732,0.139526 0.0982,0 0.1726,-0.03824 0.0744,-0.03824 0.11989,-0.107487 0.0455,-0.07028 0.0682,-0.161231 z m -0.94361,0.384473 Q 100.69,93.766122 100.69,93.38785 q 0,-0.378271 0.21084,-0.589111 0.21187,-0.211873 0.58291,-0.211873 0.37207,0 0.58291,0.21084 0.21084,0.210839 0.21084,0.590144 0,0.378272 -0.21187,0.589112 -0.21084,0.21084 -0.58188,0.21084 -0.37104,0 -0.58291,-0.21084 z"
         style="font-style:normal;font-variant:normal;font-weight:bold;font-stretch:normal;font-size:2.11666679px;font-family:Waree;-inkscape-font-specification:'Waree Bold';fill:#ffffff"
         id="path3924" />
      <path
         d="m 102.57722,92.614771 0.44442,0 0.56121,1.058333 0,-1.058333 0.37723,0 0,1.543058 -0.44441,0 -0.56121,-1.058333 0,1.058333 -0.37724,0 0,-1.543058 z"
         style="font-style:normal;font-variant:normal;font-weight:bold;font-stretch:normal;font-size:2.11666679px;font-family:Waree;-inkscape-font-specification:'Waree Bold';fill:#ffffff"
         id="path3926" />
      <path
         d="m 104.90266,92.614771 0.39998,0 0.40928,1.138949 0.40824,-1.138949 0.39998,0 -0.57155,1.543058 -0.47439,0 -0.57154,-1.543058 z"
         style="font-style:normal;font-variant:normal;font-weight:bold;font-stretch:normal;font-size:2.11666679px;font-family:Waree;-inkscape-font-specification:'Waree Bold';fill:#ffffff"
         id="path3928" />
      <path
         d="m 106.72374,92.614771 1.07384,0 0,0.300757 -0.67593,0 0,0.287321 0.63562,0 0,0.300757 -0.63562,0 0,0.353466 0.69866,0 0,0.300757 -1.09657,0 0,-1.543058 z"
         style="font-style:normal;font-variant:normal;font-weight:bold;font-stretch:normal;font-size:2.11666679px;font-family:Waree;-inkscape-font-specification:'Waree Bold';fill:#ffffff"
         id="path3930" />
      <path
         d="m 108.17068,92.614771 0.39791,0 0,1.242301 0.69866,0 0,0.300757 -1.09657,0 0,-1.543058 z"
         style="font-style:normal;font-variant:normal;font-weight:bold;font-stretch:normal;font-size:2.11666679px;font-family:Waree;-inkscape-font-specification:'Waree Bold';fill:#ffffff"
         id="path3932" />
    </g>
    <g
       style="font-style:normal;font-weight:normal;font-size:11.28888893px;line-height:125%;font-family:sans-serif;letter-spacing:0px;word-spacing:0px;fill:#000000;fill-opacity:1;stroke:none;stroke-width:1px;stroke-linecap:butt;stroke-linejoin:miter;stroke-opacity:1"
       id="text3486-4">
      <path
         d="m 81.082822,93.905062 q 0.23151,0 0.444417,-0.145727 l 0,0.31936 q -0.220142,0.114722 -0.476457,0.114722 -0.387573,0 -0.611849,-0.213941 -0.224275,-0.214974 -0.224275,-0.58601 0,-0.371037 0.223242,-0.586011 0.224276,-0.214974 0.612882,-0.214974 0.256315,0 0.476457,0.114722 l 0,0.31936 q -0.214974,-0.145728 -0.444417,-0.145728 -0.217041,0 -0.336931,0.138493 -0.119889,0.13746 -0.119889,0.374138 0,0.236678 0.119889,0.374137 0.11989,0.137459 0.336931,0.137459 z"
         style="font-style:normal;font-variant:normal;font-weight:bold;font-stretch:normal;font-size:2.11666679px;font-family:Waree;-inkscape-font-specification:'Waree Bold';fill:#ffffff"
         id="path3919" />
      <path
         d="m 81.674,92.620386 0.399976,0 0.409277,1.138949 0.408244,-1.138949 0.399976,0 -0.571542,1.543059 -0.47439,0 L 81.674,92.620386 Z"
         style="font-style:normal;font-variant:normal;font-weight:bold;font-stretch:normal;font-size:2.11666679px;font-family:Waree;-inkscape-font-specification:'Waree Bold';fill:#ffffff"
         id="path3921" />
    </g>
    <g
       style="font-style:normal;font-weight:normal;font-size:11.28888893px;line-height:125%;font-family:sans-serif;letter-spacing:0px;word-spacing:0px;fill:#000000;fill-opacity:1;stroke:none;stroke-width:1px;stroke-linecap:butt;stroke-linejoin:miter;stroke-opacity:1"
       id="text3464-4-9">
      <path
         d="m 135.27877,92.507463 0.43511,0 0.3514,0.549838 0.3514,-0.549838 0.43615,0 -0.58808,0.892969 0,0.65009 -0.3979,0 0,-0.65009 -0.58808,-0.892969 z"
         style="font-style:normal;font-variant:normal;font-weight:bold;font-stretch:normal;font-size:2.11666679px;font-family:Waree;-inkscape-font-specification:'Waree Bold';fill:#ffffff"
         id="path3908" />
      <path
         d="m 138.69975,93.769402 -0.62219,0 -0.0982,0.28112 -0.39998,0 0.57154,-1.543059 0.47439,0 0.57155,1.543059 -0.39998,0 -0.0971,-0.28112 z m -0.52297,-0.286287 0.42272,0 -0.21084,-0.613916 -0.21188,0.613916 z"
         style="font-style:normal;font-variant:normal;font-weight:bold;font-stretch:normal;font-size:2.11666679px;font-family:Waree;-inkscape-font-specification:'Waree Bold';fill:#ffffff"
         id="path3910" />
      <path
         d="m 140.26038,93.262973 0.53536,0.787549 -0.41444,0 -0.3607,-0.5271 -0.3576,0.5271 -0.41652,0 0.53537,-0.787549 -0.51469,-0.75551 0.41547,0 0.33797,0.497128 0.33693,-0.497128 0.41754,0 -0.51469,0.75551 z"
         style="font-style:normal;font-variant:normal;font-weight:bold;font-stretch:normal;font-size:2.11666679px;font-family:Waree;-inkscape-font-specification:'Waree Bold';fill:#ffffff"
         id="path3912" />
      <path
         d="m 141.03346,92.507463 0.3979,0 0,1.543059 -0.3979,0 0,-1.543059 z"
         style="font-style:normal;font-variant:normal;font-weight:bold;font-stretch:normal;font-size:2.11666679px;font-family:Waree;-inkscape-font-specification:'Waree Bold';fill:#ffffff"
         id="path3914" />
      <path
         d="m 142.35741,92.479558 q 0.25631,0 0.5395,0.07648 l 0,0.326595 q -0.25632,-0.114721 -0.47646,-0.114721 -0.15089,0 -0.21497,0.04237 -0.0641,0.04134 -0.0641,0.118856 0,0.06511 0.0496,0.09922 0.0496,0.03307 0.1633,0.05684 l 0.16949,0.03411 q 0.24805,0.04961 0.36071,0.153996 0.11368,0.103353 0.11368,0.302824 0,0.264584 -0.15709,0.384473 -0.1571,0.119889 -0.45682,0.119889 -0.29249,0 -0.59015,-0.110587 l 0,-0.335897 q 0.29973,0.15813 0.55191,0.15813 0.0817,0 0.13746,-0.0155 0.0568,-0.01654 0.0837,-0.04341 0.0269,-0.02791 0.0372,-0.05374 0.0103,-0.02584 0.0103,-0.05478 0,-0.07752 -0.0537,-0.115755 -0.0527,-0.03824 -0.18087,-0.06615 l -0.15399,-0.03411 q -0.22014,-0.04858 -0.3328,-0.152963 -0.11265,-0.104386 -0.11265,-0.297656 0,-0.238745 0.15296,-0.358634 0.15296,-0.11989 0.42375,-0.11989 z"
         style="font-style:normal;font-variant:normal;font-weight:bold;font-stretch:normal;font-size:2.11666679px;font-family:Waree;-inkscape-font-specification:'Waree Bold';fill:#ffffff"
         id="path3916" />
    </g>
    <g
       style="font-style:normal;font-weight:normal;font-size:11.28888893px;line-height:125%;font-family:sans-serif;letter-spacing:0px;word-spacing:0px;fill:#000000;fill-opacity:1;stroke:none;stroke-width:1px;stroke-linecap:butt;stroke-linejoin:miter;stroke-opacity:1"
       id="text3464-53-4">
      <path
         d="m 125.52448,92.633554 q 0.16226,0.12609 0.16226,0.377238 0,0.251147 -0.16226,0.378271 -0.16227,0.126091 -0.44752,0.126091 l -0.26252,0 0,0.535368 -0.39791,0 0,-1.543059 0.66043,0 q 0.28628,0 0.44752,0.126091 z m -0.24805,0.377238 q 0,-0.10542 -0.0641,-0.160197 -0.0631,-0.05478 -0.17777,-0.05478 l -0.22014,0 0,0.430981 0.22014,0 q 0.11472,0 0.17777,-0.05478 0.0641,-0.05581 0.0641,-0.16123 z"
         style="font-style:normal;font-variant:normal;font-weight:bold;font-stretch:normal;font-size:2.11666679px;font-family:Waree;-inkscape-font-specification:'Waree Bold';fill:#ffffff"
         id="path3895" />
      <path
         d="m 126.76574,92.992188 q 0,-0.10852 -0.0568,-0.151928 -0.0568,-0.04444 -0.17673,-0.04444 l -0.16744,0 0,0.395841 0.16744,0 q 0.12919,0 0.18086,-0.04857 0.0527,-0.04858 0.0527,-0.150896 z m 0.39791,-0.05891 q 0,0.302824 -0.29662,0.395842 0.0899,0.02067 0.15296,0.09198 0.0641,0.07131 0.12402,0.191203 l 0.21601,0.438216 -0.42374,0 -0.18811,-0.383439 q -0.0527,-0.108521 -0.11162,-0.153996 -0.0579,-0.04651 -0.15916,-0.04651 l -0.11266,0 0,0.583944 -0.3979,0 0,-1.543059 0.60771,0 q 0.1664,0 0.28319,0.02997 0.11679,0.02997 0.18293,0.08785 0.0661,0.05788 0.094,0.133325 0.0289,0.07441 0.0289,0.174666 z"
         style="font-style:normal;font-variant:normal;font-weight:bold;font-stretch:normal;font-size:2.11666679px;font-family:Waree;-inkscape-font-specification:'Waree Bold';fill:#ffffff"
         id="path3897" />
      <path
         d="m 127.59567,92.507463 1.07383,0 0,0.300757 -0.67592,0 0,0.287321 0.63562,0 0,0.300757 -0.63562,0 0,0.353467 0.69866,0 0,0.300757 -1.09657,0 0,-1.543059 z"
         style="font-style:normal;font-variant:normal;font-weight:bold;font-stretch:normal;font-size:2.11666679px;font-family:Waree;-inkscape-font-specification:'Waree Bold';fill:#ffffff"
         id="path3899" />
      <path
         d="m 129.57694,92.479558 q 0.25632,0 0.5395,0.07648 l 0,0.326595 q -0.25631,-0.114721 -0.47645,-0.114721 -0.1509,0 -0.21498,0.04237 -0.0641,0.04134 -0.0641,0.118856 0,0.06511 0.0496,0.09922 0.0496,0.03307 0.1633,0.05684 l 0.1695,0.03411 q 0.24805,0.04961 0.3607,0.153996 0.11369,0.103353 0.11369,0.302824 0,0.264584 -0.1571,0.384473 -0.15709,0.119889 -0.45682,0.119889 -0.29249,0 -0.59014,-0.110587 l 0,-0.335897 q 0.29972,0.15813 0.5519,0.15813 0.0816,0 0.13746,-0.0155 0.0568,-0.01654 0.0837,-0.04341 0.0269,-0.02791 0.0372,-0.05374 0.0103,-0.02584 0.0103,-0.05478 0,-0.07752 -0.0537,-0.115755 -0.0527,-0.03824 -0.18087,-0.06615 l -0.154,-0.03411 q -0.22014,-0.04858 -0.33279,-0.152963 -0.11266,-0.104386 -0.11266,-0.297656 0,-0.238745 0.15296,-0.358634 0.15297,-0.11989 0.42375,-0.11989 z"
         style="font-style:normal;font-variant:normal;font-weight:bold;font-stretch:normal;font-size:2.11666679px;font-family:Waree;-inkscape-font-specification:'Waree Bold';fill:#ffffff"
         id="path3901" />
      <path
         d="m 131.10243,92.479558 q 0.25631,0 0.5395,0.07648 l 0,0.326595 q -0.25631,-0.114721 -0.47646,-0.114721 -0.15089,0 -0.21497,0.04237 -0.0641,0.04134 -0.0641,0.118856 0,0.06511 0.0496,0.09922 0.0496,0.03307 0.1633,0.05684 l 0.1695,0.03411 q 0.24804,0.04961 0.3607,0.153996 0.11369,0.103353 0.11369,0.302824 0,0.264584 -0.1571,0.384473 -0.1571,0.119889 -0.45682,0.119889 -0.29249,0 -0.59014,-0.110587 l 0,-0.335897 q 0.29972,0.15813 0.5519,0.15813 0.0816,0 0.13746,-0.0155 0.0568,-0.01654 0.0837,-0.04341 0.0269,-0.02791 0.0372,-0.05374 0.0103,-0.02584 0.0103,-0.05478 0,-0.07752 -0.0538,-0.115755 -0.0527,-0.03824 -0.18086,-0.06615 l -0.154,-0.03411 q -0.22014,-0.04858 -0.33279,-0.152963 -0.11266,-0.104386 -0.11266,-0.297656 0,-0.238745 0.15296,-0.358634 0.15296,-0.11989 0.42375,-0.11989 z"
         style="font-style:normal;font-variant:normal;font-weight:bold;font-stretch:normal;font-size:2.11666679px;font-family:Waree;-inkscape-font-specification:'Waree Bold';fill:#ffffff"
         id="path3903" />
      <path
         d="m 132.11529,93.650546 0.37207,0 0,0.399976 -0.37207,0 0,-0.399976 z"
         style="font-style:normal;font-variant:normal;font-weight:bold;font-stretch:normal;font-size:2.11666679px;font-family:Waree;-inkscape-font-specification:'Waree Bold';fill:#ffffff"
         id="path3905" />
    </g>
    <g
       style="font-style:normal;font-weight:normal;font-size:11.28888893px;line-height:125%;font-family:sans-serif;letter-spacing:0px;word-spacing:0px;fill:#000000;fill-opacity:1;stroke:none;stroke-width:1px;stroke-linecap:butt;stroke-linejoin:miter;stroke-opacity:1"
       id="text3464-20-0">
      <path
         d="m 112.57042,93.555731 q 0.0227,-0.09198 0.0227,-0.204639 0,-0.112655 -0.0227,-0.204639 -0.0227,-0.09198 -0.0682,-0.16123 -0.0455,-0.07028 -0.11989,-0.108521 -0.0744,-0.03824 -0.1726,-0.03824 -0.12919,0 -0.21704,0.06821 -0.0868,0.06718 -0.12609,0.179834 -0.0393,0.112654 -0.0393,0.264583 0,0.232544 0.0951,0.37207 0.0961,0.139527 0.28732,0.139527 0.0982,0 0.1726,-0.03824 0.0744,-0.03824 0.11989,-0.107487 0.0455,-0.07028 0.0682,-0.16123 z m -0.94361,0.384472 q -0.21084,-0.21084 -0.21084,-0.589111 0,-0.378272 0.21084,-0.589111 0.21187,-0.211874 0.58291,-0.211874 0.37207,0 0.58291,0.21084 0.21084,0.21084 0.21084,0.590145 0,0.378271 -0.21188,0.589111 -0.21084,0.21084 -0.58187,0.21084 -0.37104,0 -0.58291,-0.21084 z"
         style="font-style:normal;font-variant:normal;font-weight:bold;font-stretch:normal;font-size:2.11666679px;font-family:Waree;-inkscape-font-specification:'Waree Bold';fill:#ffffff"
         id="path3882" />
      <path
         d="m 113.30319,92.578013 1.07384,0 0,0.300756 -0.67593,0 0,0.287321 0.63562,0 0,0.300757 -0.63562,0 0,0.654224 -0.39791,0 0,-1.543058 z"
         style="font-style:normal;font-variant:normal;font-weight:bold;font-stretch:normal;font-size:2.11666679px;font-family:Waree;-inkscape-font-specification:'Waree Bold';fill:#ffffff"
         id="path3884" />
      <path
         d="m 114.75013,92.578013 1.07384,0 0,0.300756 -0.67593,0 0,0.287321 0.63562,0 0,0.300757 -0.63562,0 0,0.654224 -0.39791,0 0,-1.543058 z"
         style="font-style:normal;font-variant:normal;font-weight:bold;font-stretch:normal;font-size:2.11666679px;font-family:Waree;-inkscape-font-specification:'Waree Bold';fill:#ffffff"
         id="path3886" />
      <path
         d="m 116.74898,92.578013 0.39997,0 0.40928,1.138948 0.40824,-1.138948 0.39998,0 -0.57154,1.543058 -0.47439,0 -0.57154,-1.543058 z"
         style="font-style:normal;font-variant:normal;font-weight:bold;font-stretch:normal;font-size:2.11666679px;font-family:Waree;-inkscape-font-specification:'Waree Bold';fill:#ffffff"
         id="path3888" />
      <path
         d="m 118.57005,92.578013 1.07384,0 0,0.300756 -0.67593,0 0,0.287321 0.63562,0 0,0.300757 -0.63562,0 0,0.353467 0.69867,0 0,0.300757 -1.09658,0 0,-1.543058 z"
         style="font-style:normal;font-variant:normal;font-weight:bold;font-stretch:normal;font-size:2.11666679px;font-family:Waree;-inkscape-font-specification:'Waree Bold';fill:#ffffff"
         id="path3890" />
      <path
         d="m 120.01699,92.578013 0.39791,0 0,1.242301 0.69867,0 0,0.300757 -1.09658,0 0,-1.543058 z"
         style="font-style:normal;font-variant:normal;font-weight:bold;font-stretch:normal;font-size:2.11666679px;font-family:Waree;-inkscape-font-specification:'Waree Bold';fill:#ffffff"
         id="path3892" />
    </g>
    <path
       inkscape:connector-curvature="0"
       id="path4075-3"
       d="m 144.51377,108.53733 c 0,-0.54984 -0.68649,-0.99908 -1.52413,-0.99908 l -64.718873,0 c -0.83764,0 -1.52203,0.44924 -1.52203,0.99908 l 0,12.17221 c 0,0.55121 0.68439,1.00045 1.52203,1.00045 l 64.718873,0 c 0.83764,0 1.52413,-0.44924 1.52413,-1.00045 z m 0,0"
       style="fill:#000000;fill-opacity:1;fill-rule:nonzero;stroke:none;stroke-width:0.35277775" />
    <path
       inkscape:connector-curvature="0"
       id="path4595-9"
       d="m 121.23044,108.53733 c 0,-0.54984 -0.45062,-0.99908 -1.00046,-0.99908 l -7.68118,0 c -0.55122,0 -1.00046,0.44924 -1.00046,0.99908 l 0,12.17221 c 0,0.55121 0.44924,1.00045 1.00046,1.00045 l 7.68118,0 c 0.54984,0 1.00046,-0.44924 1.00046,-1.00045 z m 0,0"
       style="fill:#000000;fill-opacity:1;fill-rule:nonzero;stroke:none;stroke-width:0.35277775" />
    <path
       inkscape:connector-curvature="0"
       id="path4597-8"
       d="m 109.63011,108.53733 c 0,-0.54984 -0.44924,-0.99908 -1.00045,-0.99908 l -7.68119,0 c -0.54984,0 -1.000453,0.44924 -1.000453,0.99908 l 0,12.17221 c 0,0.55121 0.450613,1.00045 1.000453,1.00045 l 7.68119,0 c 0.55121,0 1.00045,-0.44924 1.00045,-1.00045 z m 0,0"
       style="fill:#000000;fill-opacity:1;fill-rule:nonzero;stroke:none;stroke-width:0.35277775" />
    <path
       inkscape:connector-curvature="0"
       id="path4599-1"
       d="m 98.029777,108.53733 c 0,-0.54984 -0.44924,-0.99908 -0.99907,-0.99908 l -7.68257,0 c -0.54983,0 -1.00045,0.44924 -1.00045,0.99908 l 0,12.17221 c 0,0.55121 0.45062,1.00045 1.00045,1.00045 l 7.68257,0 c 0.54983,0 0.99907,-0.44924 0.99907,-1.00045 z m 0,0"
       style="fill:#000000;fill-opacity:1;fill-rule:nonzero;stroke:none;stroke-width:0.35277775" />
    <g
       style="font-style:normal;font-weight:normal;font-size:11.28888893px;line-height:125%;font-family:sans-serif;letter-spacing:0px;word-spacing:0px;fill:#000000;fill-opacity:1;stroke:none;stroke-width:1px;stroke-linecap:butt;stroke-linejoin:miter;stroke-opacity:1"
       id="text3464-7">
      <path
         d="m 90.809902,110.40414 q 0.129191,0 0.21084,-0.032 l 0,-0.29972 -0.242879,0 0,-0.26665 0.620117,0 0,0.74207 q -0.29869,0.14469 -0.639754,0.14469 -0.387574,0 -0.611849,-0.21394 -0.224276,-0.21497 -0.224276,-0.58601 0,-0.3762 0.22841,-0.58808 0.229443,-0.2129 0.629419,-0.2129 0.310058,0 0.561206,0.11472 l 0,0.31936 q -0.255282,-0.14573 -0.51263,-0.14573 -0.238746,0 -0.366903,0.13333 -0.128158,0.13229 -0.128158,0.3793 0,0.24392 0.12299,0.37827 0.12299,0.13333 0.353467,0.13333 z"
         style="font-style:normal;font-variant:normal;font-weight:bold;font-stretch:normal;font-size:2.11666679px;font-family:Waree;-inkscape-font-specification:'Waree Bold';fill:#ffffff"
         id="path3997" />
      <path
         d="m 92.68369,110.3814 -0.622185,0 -0.09819,0.28112 -0.399976,0 0.571542,-1.54306 0.474389,0 0.571542,1.54306 -0.399976,0 -0.09715,-0.28112 z m -0.522966,-0.28629 0.422713,0 -0.21084,-0.61391 -0.211873,0.61391 z"
         style="font-style:normal;font-variant:normal;font-weight:bold;font-stretch:normal;font-size:2.11666679px;font-family:Waree;-inkscape-font-specification:'Waree Bold';fill:#ffffff"
         id="path3999" />
      <path
         d="m 93.043358,109.11946 1.422135,0 0,0.30076 -0.511597,0 0,1.2423 -0.397908,0 0,-1.2423 -0.51263,0 0,-0.30076 z"
         style="font-style:normal;font-variant:normal;font-weight:bold;font-stretch:normal;font-size:2.11666679px;font-family:Waree;-inkscape-font-specification:'Waree Bold';fill:#ffffff"
         id="path4001" />
      <path
         d="m 94.670132,109.11946 1.073836,0 0,0.30076 -0.675928,0 0,0.28732 0.63562,0 0,0.30076 -0.63562,0 0,0.35346 0.698666,0 0,0.30076 -1.096574,0 0,-1.54306 z"
         style="font-style:normal;font-variant:normal;font-weight:bold;font-stretch:normal;font-size:2.11666679px;font-family:Waree;-inkscape-font-specification:'Waree Bold';fill:#ffffff"
         id="path4003" />
    </g>
    <g
       style="font-style:normal;font-weight:normal;font-size:11.28888893px;line-height:125%;font-family:sans-serif;letter-spacing:0px;word-spacing:0px;fill:#000000;fill-opacity:1;stroke:none;stroke-width:1px;stroke-linecap:butt;stroke-linejoin:miter;stroke-opacity:1"
       id="text3464-2-29">
      <path
         d="m 101.74467,110.05629 q 0.0227,-0.092 0.0227,-0.20464 0,-0.11266 -0.0227,-0.20464 -0.0227,-0.092 -0.0682,-0.16123 -0.0455,-0.0703 -0.11989,-0.10852 -0.0744,-0.0382 -0.1726,-0.0382 -0.12919,0 -0.21704,0.0682 -0.0868,0.0672 -0.12609,0.17984 -0.0393,0.11265 -0.0393,0.26458 0,0.23254 0.0951,0.37207 0.0961,0.13953 0.28732,0.13953 0.0982,0 0.1726,-0.0382 0.0744,-0.0383 0.11989,-0.10749 0.0455,-0.0703 0.0682,-0.16123 z m -0.94361,0.38447 q -0.21084,-0.21084 -0.21084,-0.58911 0,-0.37827 0.21084,-0.58911 0.21188,-0.21188 0.58291,-0.21188 0.37207,0 0.58291,0.21084 0.21084,0.21084 0.21084,0.59015 0,0.37827 -0.21187,0.58911 -0.21084,0.21084 -0.58188,0.21084 -0.37103,0 -0.58291,-0.21084 z"
         style="font-style:normal;font-variant:normal;font-weight:bold;font-stretch:normal;font-size:2.11666679px;font-family:Waree;-inkscape-font-specification:'Waree Bold';fill:#ffffff"
         id="path3986" />
      <path
         d="m 102.47745,109.07857 0.44441,0 0.56121,1.05833 0,-1.05833 0.37724,0 0,1.54306 -0.44442,0 -0.56121,-1.05834 0,1.05834 -0.37723,0 0,-1.54306 z"
         style="font-style:normal;font-variant:normal;font-weight:bold;font-stretch:normal;font-size:2.11666679px;font-family:Waree;-inkscape-font-specification:'Waree Bold';fill:#ffffff"
         id="path3988" />
      <path
         d="m 104.80289,109.07857 0.39997,0 0.40928,1.13895 0.40824,-1.13895 0.39998,0 -0.57154,1.54306 -0.47439,0 -0.57154,-1.54306 z"
         style="font-style:normal;font-variant:normal;font-weight:bold;font-stretch:normal;font-size:2.11666679px;font-family:Waree;-inkscape-font-specification:'Waree Bold';fill:#ffffff"
         id="path3990" />
      <path
         d="m 106.62396,109.07857 1.07384,0 0,0.30076 -0.67593,0 0,0.28732 0.63562,0 0,0.30075 -0.63562,0 0,0.35347 0.69867,0 0,0.30076 -1.09658,0 0,-1.54306 z"
         style="font-style:normal;font-variant:normal;font-weight:bold;font-stretch:normal;font-size:2.11666679px;font-family:Waree;-inkscape-font-specification:'Waree Bold';fill:#ffffff"
         id="path3992" />
      <path
         d="m 108.0709,109.07857 0.39791,0 0,1.2423 0.69867,0 0,0.30076 -1.09658,0 0,-1.54306 z"
         style="font-style:normal;font-variant:normal;font-weight:bold;font-stretch:normal;font-size:2.11666679px;font-family:Waree;-inkscape-font-specification:'Waree Bold';fill:#ffffff"
         id="path3994" />
    </g>
    <g
       style="font-style:normal;font-weight:normal;font-size:11.28888893px;line-height:125%;font-family:sans-serif;letter-spacing:0px;word-spacing:0px;fill:#000000;fill-opacity:1;stroke:none;stroke-width:1px;stroke-linecap:butt;stroke-linejoin:miter;stroke-opacity:1"
       id="text3486-5">
      <path
         d="m 80.983037,110.36886 q 0.23151,0 0.444417,-0.14573 l 0,0.31936 q -0.220141,0.11473 -0.476457,0.11473 -0.387573,0 -0.611849,-0.21395 -0.224275,-0.21497 -0.224275,-0.58601 0,-0.37103 0.223242,-0.58601 0.224276,-0.21497 0.612882,-0.21497 0.256316,0 0.476457,0.11472 l 0,0.31936 q -0.214974,-0.14573 -0.444417,-0.14573 -0.217041,0 -0.33693,0.1385 -0.11989,0.13746 -0.11989,0.37413 0,0.23668 0.11989,0.37414 0.119889,0.13746 0.33693,0.13746 z"
         style="font-style:normal;font-variant:normal;font-weight:bold;font-stretch:normal;font-size:2.11666679px;font-family:Waree;-inkscape-font-specification:'Waree Bold';fill:#ffffff"
         id="path3981" />
      <path
         d="m 81.574215,109.08418 0.399976,0 0.409277,1.13895 0.408244,-1.13895 0.399976,0 -0.571542,1.54306 -0.474389,0 -0.571542,-1.54306 z"
         style="font-style:normal;font-variant:normal;font-weight:bold;font-stretch:normal;font-size:2.11666679px;font-family:Waree;-inkscape-font-specification:'Waree Bold';fill:#ffffff"
         id="path3983" />
    </g>
    <g
       style="font-style:normal;font-weight:normal;font-size:11.28888893px;line-height:125%;font-family:sans-serif;letter-spacing:0px;word-spacing:0px;fill:#000000;fill-opacity:1;stroke:none;stroke-width:1px;stroke-linecap:butt;stroke-linejoin:miter;stroke-opacity:1"
       id="text3464-4-2">
      <path
         d="m 135.17899,108.97126 0.43512,0 0.3514,0.54984 0.3514,-0.54984 0.43614,0 -0.58807,0.89297 0,0.65009 -0.39791,0 0,-0.65009 -0.58808,-0.89297 z"
         style="font-style:normal;font-variant:normal;font-weight:bold;font-stretch:normal;font-size:2.11666679px;font-family:Waree;-inkscape-font-specification:'Waree Bold';fill:#ffffff"
         id="path3970" />
      <path
         d="m 138.59997,110.2332 -0.62218,0 -0.0982,0.28112 -0.39997,0 0.57154,-1.54306 0.47439,0 0.57154,1.54306 -0.39998,0 -0.0971,-0.28112 z m -0.52296,-0.28629 0.42271,0 -0.21084,-0.61391 -0.21187,0.61391 z"
         style="font-style:normal;font-variant:normal;font-weight:bold;font-stretch:normal;font-size:2.11666679px;font-family:Waree;-inkscape-font-specification:'Waree Bold';fill:#ffffff"
         id="path3972" />
      <path
         d="m 140.1606,109.72677 0.53537,0.78755 -0.41445,0 -0.3607,-0.5271 -0.3576,0.5271 -0.41651,0 0.53537,-0.78755 -0.5147,-0.75551 0.41548,0 0.33796,0.49713 0.33693,-0.49713 0.41755,0 -0.5147,0.75551 z"
         style="font-style:normal;font-variant:normal;font-weight:bold;font-stretch:normal;font-size:2.11666679px;font-family:Waree;-inkscape-font-specification:'Waree Bold';fill:#ffffff"
         id="path3974" />
      <path
         d="m 140.93368,108.97126 0.39791,0 0,1.54306 -0.39791,0 0,-1.54306 z"
         style="font-style:normal;font-variant:normal;font-weight:bold;font-stretch:normal;font-size:2.11666679px;font-family:Waree;-inkscape-font-specification:'Waree Bold';fill:#ffffff"
         id="path3976" />
      <path
         d="m 142.25763,108.94336 q 0.25631,0 0.5395,0.0765 l 0,0.32659 q -0.25631,-0.11472 -0.47646,-0.11472 -0.15089,0 -0.21497,0.0424 -0.0641,0.0413 -0.0641,0.11885 0,0.0651 0.0496,0.0992 0.0496,0.0331 0.1633,0.0568 l 0.1695,0.0341 q 0.24804,0.0496 0.3607,0.154 0.11369,0.10335 0.11369,0.30282 0,0.26458 -0.1571,0.38447 -0.1571,0.11989 -0.45682,0.11989 -0.29249,0 -0.59014,-0.11058 l 0,-0.3359 q 0.29972,0.15813 0.5519,0.15813 0.0816,0 0.13746,-0.0155 0.0568,-0.0165 0.0837,-0.0434 0.0269,-0.0279 0.0372,-0.0537 0.0103,-0.0258 0.0103,-0.0548 0,-0.0775 -0.0538,-0.11576 -0.0527,-0.0382 -0.18086,-0.0661 l -0.154,-0.0341 q -0.22014,-0.0486 -0.3328,-0.15296 -0.11265,-0.10439 -0.11265,-0.29766 0,-0.23874 0.15296,-0.35863 0.15296,-0.11989 0.42375,-0.11989 z"
         style="font-style:normal;font-variant:normal;font-weight:bold;font-stretch:normal;font-size:2.11666679px;font-family:Waree;-inkscape-font-specification:'Waree Bold';fill:#ffffff"
         id="path3978" />
    </g>
    <g
       style="font-style:normal;font-weight:normal;font-size:11.28888893px;line-height:125%;font-family:sans-serif;letter-spacing:0px;word-spacing:0px;fill:#000000;fill-opacity:1;stroke:none;stroke-width:1px;stroke-linecap:butt;stroke-linejoin:miter;stroke-opacity:1"
       id="text3464-53-7">
      <path
         d="m 125.42468,109.09735 q 0.16227,0.12609 0.16227,0.37724 0,0.25115 -0.16227,0.37827 -0.16226,0.12609 -0.44752,0.12609 l -0.26251,0 0,0.53537 -0.39791,0 0,-1.54306 0.66042,0 q 0.28629,0 0.44752,0.12609 z m -0.24804,0.37724 q 0,-0.10542 -0.0641,-0.1602 -0.0631,-0.0548 -0.17777,-0.0548 l -0.22014,0 0,0.43098 0.22014,0 q 0.11472,0 0.17777,-0.0548 0.0641,-0.0558 0.0641,-0.16123 z"
         style="font-style:normal;font-variant:normal;font-weight:bold;font-stretch:normal;font-size:2.11666679px;font-family:Waree;-inkscape-font-specification:'Waree Bold';fill:#ffffff"
         id="path3957" />
      <path
         d="m 126.66595,109.45599 q 0,-0.10852 -0.0568,-0.15193 -0.0568,-0.0444 -0.17674,-0.0444 l -0.16743,0 0,0.39584 0.16743,0 q 0.12919,0 0.18087,-0.0486 0.0527,-0.0486 0.0527,-0.15089 z m 0.39791,-0.0589 q 0,0.30282 -0.29662,0.39584 0.0899,0.0207 0.15296,0.092 0.0641,0.0713 0.12402,0.1912 l 0.21601,0.43822 -0.42375,0 -0.1881,-0.38344 q -0.0527,-0.10852 -0.11162,-0.15399 -0.0579,-0.0465 -0.15916,-0.0465 l -0.11266,0 0,0.58394 -0.39791,0 0,-1.54306 0.60772,0 q 0.1664,0 0.28318,0.03 0.11679,0.03 0.18294,0.0878 0.0661,0.0579 0.094,0.13333 0.0289,0.0744 0.0289,0.17467 z"
         style="font-style:normal;font-variant:normal;font-weight:bold;font-stretch:normal;font-size:2.11666679px;font-family:Waree;-inkscape-font-specification:'Waree Bold';fill:#ffffff"
         id="path3959" />
      <path
         d="m 127.49587,108.97126 1.07384,0 0,0.30076 -0.67593,0 0,0.28732 0.63562,0 0,0.30076 -0.63562,0 0,0.35346 0.69867,0 0,0.30076 -1.09658,0 0,-1.54306 z"
         style="font-style:normal;font-variant:normal;font-weight:bold;font-stretch:normal;font-size:2.11666679px;font-family:Waree;-inkscape-font-specification:'Waree Bold';fill:#ffffff"
         id="path3961" />
      <path
         d="m 129.47715,108.94336 q 0.25631,0 0.5395,0.0765 l 0,0.32659 q -0.25631,-0.11472 -0.47646,-0.11472 -0.15089,0 -0.21497,0.0424 -0.0641,0.0413 -0.0641,0.11885 0,0.0651 0.0496,0.0992 0.0496,0.0331 0.1633,0.0568 l 0.1695,0.0341 q 0.24804,0.0496 0.3607,0.154 0.11369,0.10335 0.11369,0.30282 0,0.26458 -0.1571,0.38447 -0.1571,0.11989 -0.45682,0.11989 -0.29249,0 -0.59014,-0.11058 l 0,-0.3359 q 0.29972,0.15813 0.5519,0.15813 0.0816,0 0.13746,-0.0155 0.0568,-0.0165 0.0837,-0.0434 0.0269,-0.0279 0.0372,-0.0537 0.0103,-0.0258 0.0103,-0.0548 0,-0.0775 -0.0538,-0.11576 -0.0527,-0.0382 -0.18086,-0.0661 l -0.154,-0.0341 q -0.22014,-0.0486 -0.3328,-0.15296 -0.11265,-0.10439 -0.11265,-0.29766 0,-0.23874 0.15296,-0.35863 0.15296,-0.11989 0.42375,-0.11989 z"
         style="font-style:normal;font-variant:normal;font-weight:bold;font-stretch:normal;font-size:2.11666679px;font-family:Waree;-inkscape-font-specification:'Waree Bold';fill:#ffffff"
         id="path3963" />
      <path
         d="m 131.00264,108.94336 q 0.25631,0 0.5395,0.0765 l 0,0.32659 q -0.25632,-0.11472 -0.47646,-0.11472 -0.15089,0 -0.21497,0.0424 -0.0641,0.0413 -0.0641,0.11885 0,0.0651 0.0496,0.0992 0.0496,0.0331 0.1633,0.0568 l 0.1695,0.0341 q 0.24804,0.0496 0.3607,0.154 0.11368,0.10335 0.11368,0.30282 0,0.26458 -0.15709,0.38447 -0.1571,0.11989 -0.45682,0.11989 -0.29249,0 -0.59015,-0.11058 l 0,-0.3359 q 0.29973,0.15813 0.55191,0.15813 0.0817,0 0.13746,-0.0155 0.0568,-0.0165 0.0837,-0.0434 0.0269,-0.0279 0.0372,-0.0537 0.0103,-0.0258 0.0103,-0.0548 0,-0.0775 -0.0537,-0.11576 -0.0527,-0.0382 -0.18087,-0.0661 l -0.15399,-0.0341 q -0.22014,-0.0486 -0.3328,-0.15296 -0.11265,-0.10439 -0.11265,-0.29766 0,-0.23874 0.15296,-0.35863 0.15296,-0.11989 0.42375,-0.11989 z"
         style="font-style:normal;font-variant:normal;font-weight:bold;font-stretch:normal;font-size:2.11666679px;font-family:Waree;-inkscape-font-specification:'Waree Bold';fill:#ffffff"
         id="path3965" />
      <path
         d="m 132.0155,110.11434 0.37207,0 0,0.39998 -0.37207,0 0,-0.39998 z"
         style="font-style:normal;font-variant:normal;font-weight:bold;font-stretch:normal;font-size:2.11666679px;font-family:Waree;-inkscape-font-specification:'Waree Bold';fill:#ffffff"
         id="path3967" />
    </g>
    <g
       style="font-style:normal;font-weight:normal;font-size:11.28888893px;line-height:125%;font-family:sans-serif;letter-spacing:0px;word-spacing:0px;fill:#000000;fill-opacity:1;stroke:none;stroke-width:1px;stroke-linecap:butt;stroke-linejoin:miter;stroke-opacity:1"
       id="text3464-20-5">
      <path
         d="m 112.47064,110.01954 q 0.0227,-0.092 0.0227,-0.20464 0,-0.11266 -0.0227,-0.20464 -0.0227,-0.092 -0.0682,-0.16123 -0.0455,-0.0703 -0.11989,-0.10852 -0.0744,-0.0382 -0.1726,-0.0382 -0.12919,0 -0.21704,0.0682 -0.0868,0.0672 -0.12609,0.17983 -0.0393,0.11266 -0.0393,0.26459 0,0.23254 0.0951,0.37207 0.0961,0.13952 0.28732,0.13952 0.0982,0 0.1726,-0.0382 0.0744,-0.0382 0.11989,-0.10748 0.0455,-0.0703 0.0682,-0.16123 z m -0.94361,0.38447 q -0.21084,-0.21084 -0.21084,-0.58911 0,-0.37827 0.21084,-0.58911 0.21187,-0.21188 0.58291,-0.21188 0.37207,0 0.58291,0.21084 0.21084,0.21084 0.21084,0.59015 0,0.37827 -0.21187,0.58911 -0.21084,0.21084 -0.58188,0.21084 -0.37104,0 -0.58291,-0.21084 z"
         style="font-style:normal;font-variant:normal;font-weight:bold;font-stretch:normal;font-size:2.11666679px;font-family:Waree;-inkscape-font-specification:'Waree Bold';fill:#ffffff"
         id="path3944" />
      <path
         d="m 113.20341,109.04182 1.07384,0 0,0.30076 -0.67593,0 0,0.28732 0.63562,0 0,0.30075 -0.63562,0 0,0.65423 -0.39791,0 0,-1.54306 z"
         style="font-style:normal;font-variant:normal;font-weight:bold;font-stretch:normal;font-size:2.11666679px;font-family:Waree;-inkscape-font-specification:'Waree Bold';fill:#ffffff"
         id="path3946" />
      <path
         d="m 114.65035,109.04182 1.07384,0 0,0.30076 -0.67593,0 0,0.28732 0.63562,0 0,0.30075 -0.63562,0 0,0.65423 -0.39791,0 0,-1.54306 z"
         style="font-style:normal;font-variant:normal;font-weight:bold;font-stretch:normal;font-size:2.11666679px;font-family:Waree;-inkscape-font-specification:'Waree Bold';fill:#ffffff"
         id="path3948" />
      <path
         d="m 116.6492,109.04182 0.39997,0 0.40928,1.13895 0.40824,-1.13895 0.39998,0 -0.57154,1.54306 -0.47439,0 -0.57154,-1.54306 z"
         style="font-style:normal;font-variant:normal;font-weight:bold;font-stretch:normal;font-size:2.11666679px;font-family:Waree;-inkscape-font-specification:'Waree Bold';fill:#ffffff"
         id="path3950" />
      <path
         d="m 118.47028,109.04182 1.07383,0 0,0.30076 -0.67593,0 0,0.28732 0.63562,0 0,0.30075 -0.63562,0 0,0.35347 0.69867,0 0,0.30076 -1.09657,0 0,-1.54306 z"
         style="font-style:normal;font-variant:normal;font-weight:bold;font-stretch:normal;font-size:2.11666679px;font-family:Waree;-inkscape-font-specification:'Waree Bold';fill:#ffffff"
         id="path3952" />
      <path
         d="m 119.91722,109.04182 0.3979,0 0,1.2423 0.69867,0 0,0.30076 -1.09657,0 0,-1.54306 z"
         style="font-style:normal;font-variant:normal;font-weight:bold;font-stretch:normal;font-size:2.11666679px;font-family:Waree;-inkscape-font-specification:'Waree Bold';fill:#ffffff"
         id="path3954" />
    </g>
  </g>
  <g
     inkscape:groupmode="layer"
     id="layer2"
     inkscape:label="widgets"
     style="display:none">
    <rect
       style="opacity:1;fill:#ffff00;fill-opacity:0.50196078;fill-rule:evenodd;stroke:none;stroke-width:0.20988902;stroke-linecap:round;stroke-linejoin:miter;stroke-miterlimit:4;stroke-dasharray:none;stroke-dashoffset:0;stroke-opacity:1;paint-order:normal"
       id="rect16218"
       width="43.999382"
       height="28.000359"
       x="3.4009969"
       y="14.837336" />
    <rect
       y="60.144478"
       x="3.894335"
       height="8.211729"
       width="8.2117319"
       id="rect17025"
       style="opacity:1;fill:#0000ff;fill-opacity:0.50196078;fill-rule:evenodd;stroke:none;stroke-width:0.04910428;stroke-linecap:round;stroke-linejoin:miter;stroke-miterlimit:4;stroke-dasharray:none;stroke-dashoffset:0;stroke-opacity:1;paint-order:normal" />
    <rect
       style="opacity:1;fill:#0000ff;fill-opacity:0.50196078;fill-rule:evenodd;stroke:none;stroke-width:0.04910428;stroke-linecap:round;stroke-linejoin:miter;stroke-miterlimit:4;stroke-dasharray:none;stroke-dashoffset:0;stroke-opacity:1;paint-order:normal"
       id="rect17027"
       width="8.2117319"
       height="8.211729"
       x="15.494659"
       y="60.144478" />
    <rect
       y="60.144478"
       x="27.094986"
       height="8.211729"
       width="8.2117319"
       id="rect17029"
       style="opacity:1;fill:#0000ff;fill-opacity:0.50196078;fill-rule:evenodd;stroke:none;stroke-width:0.04910428;stroke-linecap:round;stroke-linejoin:miter;stroke-miterlimit:4;stroke-dasharray:none;stroke-dashoffset:0;stroke-opacity:1;paint-order:normal" />
    <rect
       style="opacity:1;fill:#0000ff;fill-opacity:0.50196078;fill-rule:evenodd;stroke:none;stroke-width:0.04910428;stroke-linecap:round;stroke-linejoin:miter;stroke-miterlimit:4;stroke-dasharray:none;stroke-dashoffset:0;stroke-opacity:1;paint-order:normal"
       id="rect17031"
       width="8.2117319"
       height="8.211729"
       x="38.693935"
       y="60.144478" />
    <rect
       style="opacity:1;fill:#0000ff;fill-opacity:0.50196078;fill-rule:evenodd;stroke:none;stroke-width:0.04910428;stroke-linecap:round;stroke-linejoin:miter;stroke-miterlimit:4;stroke-dasharray:none;stroke-dashoffset:0;stroke-opacity:1;paint-order:normal"
       id="rect17033"
       width="8.2117319"
       height="8.211729"
       x="3.894335"
       y="76.144882" />
    <rect
       y="76.144882"
       x="15.494659"
       height="8.211729"
       width="8.2117319"
       id="rect17035"
       style="opacity:1;fill:#0000ff;fill-opacity:0.50196078;fill-rule:evenodd;stroke:none;stroke-width:0.04910428;stroke-linecap:round;stroke-linejoin:miter;stroke-miterlimit:4;stroke-dasharray:none;stroke-dashoffset:0;stroke-opacity:1;paint-order:normal" />
    <rect
       style="opacity:1;fill:#0000ff;fill-opacity:0.50196078;fill-rule:evenodd;stroke:none;stroke-width:0.04910428;stroke-linecap:round;stroke-linejoin:miter;stroke-miterlimit:4;stroke-dasharray:none;stroke-dashoffset:0;stroke-opacity:1;paint-order:normal"
       id="rect17037"
       width="8.2117319"
       height="8.211729"
       x="27.094986"
       y="76.144882" />
    <rect
       y="76.144882"
       x="38.693935"
       height="8.211729"
       width="8.2117319"
       id="rect17039"
       style="opacity:1;fill:#0000ff;fill-opacity:0.50196078;fill-rule:evenodd;stroke:none;stroke-width:0.04910428;stroke-linecap:round;stroke-linejoin:miter;stroke-miterlimit:4;stroke-dasharray:none;stroke-dashoffset:0;stroke-opacity:1;paint-order:normal" />
    <rect
       y="92.143906"
       x="3.894335"
       height="8.211729"
       width="8.2117319"
       id="rect17041"
       style="opacity:1;fill:#0000ff;fill-opacity:0.50196078;fill-rule:evenodd;stroke:none;stroke-width:0.04910428;stroke-linecap:round;stroke-linejoin:miter;stroke-miterlimit:4;stroke-dasharray:none;stroke-dashoffset:0;stroke-opacity:1;paint-order:normal" />
    <rect
       style="opacity:1;fill:#0000ff;fill-opacity:0.50196078;fill-rule:evenodd;stroke:none;stroke-width:0.04910428;stroke-linecap:round;stroke-linejoin:miter;stroke-miterlimit:4;stroke-dasharray:none;stroke-dashoffset:0;stroke-opacity:1;paint-order:normal"
       id="rect17043"
       width="8.2117319"
       height="8.211729"
       x="15.494659"
       y="92.143906" />
    <rect
       y="92.143906"
       x="27.094986"
       height="8.211729"
       width="8.2117319"
       id="rect17045"
       style="opacity:1;fill:#0000ff;fill-opacity:0.50196078;fill-rule:evenodd;stroke:none;stroke-width:0.04910428;stroke-linecap:round;stroke-linejoin:miter;stroke-miterlimit:4;stroke-dasharray:none;stroke-dashoffset:0;stroke-opacity:1;paint-order:normal" />
    <rect
       style="opacity:1;fill:#0000ff;fill-opacity:0.50196078;fill-rule:evenodd;stroke:none;stroke-width:0.04910428;stroke-linecap:round;stroke-linejoin:miter;stroke-miterlimit:4;stroke-dasharray:none;stroke-dashoffset:0;stroke-opacity:1;paint-order:normal"
       id="rect17047"
       width="8.2117319"
       height="8.211729"
       x="38.693935"
       y="92.143906" />
    <rect
       style="opacity:1;fill:#0000ff;fill-opacity:0.50196078;fill-rule:evenodd;stroke:none;stroke-width:0.04910428;stroke-linecap:round;stroke-linejoin:miter;stroke-miterlimit:4;stroke-dasharray:none;stroke-dashoffset:0;stroke-opacity:1;paint-order:normal"
       id="rect17049"
       width="8.2117319"
       height="8.211729"
       x="3.894335"
       y="108.1443" />
    <rect
       y="108.1443"
       x="15.494659"
       height="8.211729"
       width="8.2117319"
       id="rect17051"
       style="opacity:1;fill:#0000ff;fill-opacity:0.50196078;fill-rule:evenodd;stroke:none;stroke-width:0.04910428;stroke-linecap:round;stroke-linejoin:miter;stroke-miterlimit:4;stroke-dasharray:none;stroke-dashoffset:0;stroke-opacity:1;paint-order:normal" />
    <rect
       style="opacity:1;fill:#0000ff;fill-opacity:0.50196078;fill-rule:evenodd;stroke:none;stroke-width:0.04910428;stroke-linecap:round;stroke-linejoin:miter;stroke-miterlimit:4;stroke-dasharray:none;stroke-dashoffset:0;stroke-opacity:1;paint-order:normal"
       id="rect17053"
       width="8.2117319"
       height="8.211729"
       x="27.094986"
       y="108.1443" />
    <rect
       y="108.1443"
       x="38.693935"
       height="8.211729"
       width="8.2117319"
       id="rect17055"
       style="opacity:1;fill:#0000ff;fill-opacity:0.50196078;fill-rule:evenodd;stroke:none;stroke-width:0.04910428;stroke-linecap:round;stroke-linejoin:miter;stroke-miterlimit:4;stroke-dasharray:none;stroke-dashoffset:0;stroke-opacity:1;paint-order:normal" />
  </g>
</svg>
